<svg width="692" height="603" xmlns="http://www.w3.org/2000/svg">
  <path d="M172.901 24.0486C301.827-9.9718 451.7662-9.5786 599.6562 36.0558s95.5744 198.0455.153 284.8107c-95.4215 86.7652-280.4671 371.0011-393.3831 254.5132C93.5102 458.892 43.9748 58.069 172.9009 24.0486zM435.519 589.3882c-7.9618 0-13.7608-4.9553-13.7608-12.8578 0-7.9024 3.6316-15.159 11.5933-15.159 7.9618 0 17.39 6.6563 17.39 14.5587s-7.2607 13.458-15.2225 13.458zm47.326 7.0042c-4.1182 0-7.1177-2.4777-7.1177-6.4289 0-3.9512 1.8784-7.5795 5.9965-7.5795 4.1182 0 8.9949 3.3281 8.9949 7.2793s-3.7556 6.729-7.8738 6.729zm-.2312-43.0259c-12.08 0-20.8785-7.433-20.8785-19.2866s5.51-22.7386 17.5899-22.7386c12.08 0 26.3849 9.9845 26.3849 21.8381s-11.0164 20.1871-23.0963 20.1871zM13.7609 111.101C5.799 111.1009 0 106.1456 0 98.2432 0 90.3407 3.6316 83.084 11.5934 83.084c7.9617 0 17.39 6.6564 17.39 14.5588s-7.2608 13.458-15.2226 13.458zm43.3281 14.0084c-4.1181 0-7.1176-2.4777-7.1176-6.4289 0-3.9512 1.8784-7.5795 5.9965-7.5795 4.1182 0 8.9949 3.3281 8.9949 7.2793 0 3.9513-3.7556 6.729-7.8738 6.729zm3.7666-50.03c-12.08 0-20.8785-7.433-20.8785-19.2866 0-11.8537 5.51-22.7387 17.59-22.7387 12.0799 0 26.3848 9.9845 26.3848 21.8381S72.9355 75.0792 60.8556 75.0792z" fill="#EBE8FC" fill-rule="evenodd"/>
</svg>
