<?xml version="1.0" encoding="UTF-8"?>
<svg width="128px" height="128px" viewBox="0 0 128 128" version="1.1" xmlns="http://www.w3.org/2000/svg" xmlns:xlink="http://www.w3.org/1999/xlink">
    <!-- Generator: Sketch 55.2 (78181) - https://sketchapp.com -->
    <title>colorcards</title>
    <desc>Created with Sketch.</desc>
    <g id="Sample-Page" stroke="none" stroke-width="1" fill="none" fill-rule="evenodd">
        <g id="vynl-homepage" transform="translate(-115.000000, -1760.000000)">
            <g id="colorcards" transform="translate(115.000000, 1760.000000)">
                <path d="M64,128 C99.346224,128 128,99.346224 128,64 C128,52.5598294 128,31.2264961 128,-9.9475983e-14 C97.4573121,-9.9475983e-14 76.1239788,-9.9475983e-14 64,-9.9475983e-14 C28.653776,-9.9475983e-14 0,28.653776 0,64 C0,99.346224 28.653776,128 64,128 Z" id="Oval" fill="#D8D1FA"></path>
                <path d="M92.7905274,73.546875 C94.5600586,73.546875 96,74.9868164 96,76.7563476 L96,92.7905274 C96,94.5600586 94.5600586,96 92.7905274,96 L43.2265625,96 C37.0361328,96 32,90.9638672 32,84.7734375 L32,35.2094726 C32,33.4399414 33.4399414,32 35.2094726,32 L51.2436524,32 C53.0131836,32 54.453125,33.4399414 54.453125,35.2094726 L54.453125,63.3813476 L56.9633789,60.8710938 C57.4155274,60.4194336 58.0166015,60.1704101 58.6557617,60.1704101 C59.2949219,60.1704101 59.8959961,60.4189453 60.3481445,60.8710938 L67.1289062,67.6523438 C68.0620118,68.5854492 68.0620118,70.1035156 67.1289062,71.0366211 L62.6704101,75.4956055 C62.2182617,75.9472656 61.6171875,76.196289 60.9780274,76.196289 C60.3388672,76.196289 59.737793,75.9472656 59.2856445,75.4956055 L54.453125,70.663086 L54.453125,84.7734375 C54.453125,85.5332031 54.3769531,86.2749024 54.2324219,86.9926757 L84.8862305,56.3388672 C85.4067382,55.8188476 85.4067382,54.972168 84.8862305,54.4516601 L73.5483399,43.1137695 C73.2963867,42.8618164 72.9614257,42.7231445 72.6049805,42.7231445 C72.2480469,42.7231445 71.913086,42.8618164 71.6611327,43.1137695 L58.0195312,56.7553711 C57.6533202,57.121582 57.0595702,57.121582 56.6933594,56.7553711 C56.3271485,56.3896485 56.3271485,55.7958985 56.6933594,55.4296875 L70.3354492,41.788086 C70.9414062,41.1816406 71.7475586,40.8476562 72.6049805,40.8476562 C73.461914,40.8476562 74.2680664,41.1816406 74.8740235,41.788086 L86.211914,53.1259765 C87.4633789,54.3774414 87.4633789,56.4135742 86.211914,57.6645507 L66.2915039,77.5854492 L69.8413086,77.5854492 C71.1611327,77.5854492 72.2348632,78.6586914 72.2348632,79.9785156 L72.2348632,89.5683594 C72.2348632,90.8876953 71.1611327,91.9614258 69.8413086,91.9614258 L63.5356445,91.9614258 C62.2163086,91.9614258 61.1425781,90.8881836 61.1425781,89.5683594 L61.1425781,82.734375 L51.165039,92.7114257 C51.1396485,92.7373047 51.1123047,92.7607422 51.084961,92.7827149 C50.5776367,93.2802735 50.0239257,93.7299805 49.430664,94.125 L92.7905274,94.125 C93.5263672,94.125 94.125,93.5263673 94.125,92.7905274 L94.125,76.7563476 C94.125,76.0205078 93.5263673,75.421875 92.7905274,75.421875 L73.5229493,75.421875 C73.0048828,75.421875 72.5854493,75.0019531 72.5854493,74.484375 C72.5854493,73.9667969 73.0048828,73.546875 73.5229493,73.546875 L92.7905274,73.546875 Z M69.8413086,79.4604493 L64.4165039,79.4604493 L63.0175781,80.8588868 L63.0175781,89.5683594 C63.0175781,89.8540039 63.25,90.0864257 63.5356445,90.0864257 L69.8413086,90.0864257 C70.1274414,90.0864257 70.3598633,89.8540039 70.3598633,89.5683594 L70.3598633,79.9785156 C70.3598633,79.6928711 70.1269531,79.4604493 69.8413086,79.4604493 Z M58.2890625,62.1967774 L54.453125,66.0332031 L54.453125,68.0112305 L60.6113281,74.1694336 C60.7094726,74.2675781 60.8393555,74.321289 60.9780274,74.321289 C61.116211,74.321289 61.246582,74.2675781 61.3447265,74.1694336 L65.8032226,69.7109375 C66.0048827,69.508789 66.0048827,69.1801757 65.8032226,68.9780274 L59.0219726,62.1967774 C58.9243164,62.0991211 58.7939453,62.0454101 58.6557617,62.0454101 C58.5170899,62.0454101 58.387207,62.0991211 58.2890625,62.1967774 Z M33.875,84.7734375 C33.875,89.9296875 38.0698243,94.125 43.2265625,94.125 C48.3828125,94.125 52.578125,89.9296875 52.578125,84.7734375 L52.578125,35.2094726 C52.578125,34.4736327 51.9794923,33.875 51.2436524,33.875 L35.2094726,33.875 C34.4736328,33.875 33.875,34.4736327 33.875,35.2094726 L33.875,84.7734375 Z M87.1557618,91.9614258 L80.850586,91.9614258 C79.5307618,91.9614258 78.4570313,90.8881836 78.4570313,89.5683594 L78.4570313,79.9785156 C78.4570313,78.6591797 79.5307618,77.5854493 80.850586,77.5854493 L87.1557618,77.5854493 C88.475586,77.5854493 89.5493164,78.6591798 89.5493164,79.9785156 L89.5493164,89.5683594 C89.5493164,90.8881836 88.475586,91.9614258 87.1557618,91.9614258 Z M80.3320313,89.5683594 C80.3320313,89.8540039 80.5649414,90.0864258 80.850586,90.0864258 L87.1557618,90.0864258 C87.4414063,90.0864258 87.6743164,89.8540039 87.6743164,89.5683594 L87.6743164,79.9785156 C87.6743164,79.6928711 87.4414063,79.4604493 87.1557618,79.4604493 L80.850586,79.4604493 C80.5644531,79.4604493 80.3320313,79.6928711 80.3320313,79.9785156 L80.3320313,89.5683594 Z M73.2211914,63.953125 C72.5820312,63.953125 71.980957,63.7041015 71.5288086,63.2519531 L64.7480469,56.4711914 C63.8149414,55.538086 63.8149414,54.0195312 64.7480469,53.0864257 L69.206543,48.6279297 C69.6586914,48.1757812 70.2597656,47.9267577 70.8989257,47.9267577 C71.538086,47.9267577 72.1391601,48.1757812 72.5913086,48.6279297 L79.3720702,55.4086914 C80.3051757,56.3417969 80.3051757,57.8603515 79.3720702,58.793457 L74.9135742,63.2519531 C74.4614257,63.7041015 73.8603515,63.953125 73.2211914,63.953125 Z M65.921875,54.7788086 C65.921875,54.9174805 65.9760742,55.0473632 66.0737305,55.1450195 L72.8549805,61.9262695 C72.9526367,62.0239257 73.0825195,62.078125 73.2211914,62.078125 C73.3598632,62.078125 73.4897461,62.0239257 73.5878906,61.9262695 L78.0463867,57.4677735 C78.2485351,57.265625 78.2485351,56.9365235 78.0463867,56.7348632 L71.2651367,49.9536132 C71.1674805,49.855957 71.0371094,49.8017577 70.8989257,49.8017577 C70.7607422,49.8017577 70.6303711,49.855957 70.5327149,49.9536132 L66.0737305,54.4121094 C65.9760742,54.5102539 65.921875,54.6401367 65.921875,54.7788086 Z M38.4316406,51.4477539 C37.1118164,51.4477539 36.0385742,50.3740235 36.0385742,49.0546875 L36.0385742,42.7490235 C36.0385742,41.4291992 37.1118164,40.355957 38.4316406,40.355957 L48.0214844,40.355957 C49.3408203,40.355957 50.4145508,41.4291992 50.4145508,42.7490235 L50.4145508,49.0546875 C50.4145508,50.3740235 49.3413086,51.4477539 48.0214844,51.4477539 L38.4316406,51.4477539 Z M37.9135742,42.7490235 L37.9135742,49.0546875 C37.9135742,49.340332 38.1459961,49.5727539 38.4316406,49.5727539 L48.0214844,49.5727539 C48.3071289,49.5727539 48.5395508,49.340332 48.5395508,49.0546875 L48.5395508,42.7490235 C48.5395508,42.4633789 48.3071289,42.230957 48.0214844,42.230957 L38.4316406,42.230957 C38.1459961,42.230957 37.9135742,42.4628906 37.9135742,42.7490235 Z M48.0214844,68.762207 L38.4316406,68.762207 C37.1118164,68.762207 36.0385742,67.6889649 36.0385742,66.3691406 L36.0385742,60.0634765 C36.0385742,58.7441406 37.1118164,57.6704101 38.4316406,57.6704101 L48.0214844,57.6704101 C49.3408203,57.6704101 50.4145508,58.7436524 50.4145508,60.0634765 L50.4145508,66.3691406 C50.4145508,67.6889649 49.3413086,68.762207 48.0214844,68.762207 Z M37.9135742,66.3691406 C37.9135742,66.6547851 38.1459961,66.887207 38.4316406,66.887207 L48.0214844,66.887207 C48.3071289,66.887207 48.5395508,66.6547851 48.5395508,66.3691406 L48.5395508,60.0634765 C48.5395508,59.777832 48.3071289,59.5454101 48.0214844,59.5454101 L38.4316406,59.5454101 C38.1459961,59.5454101 37.9135742,59.777832 37.9135742,60.0634765 L37.9135742,66.3691406 Z M48.5209961,84.7734375 C48.5209961,87.6928711 46.1459961,90.0678711 43.2265625,90.0678711 C40.3076172,90.0678711 37.9321289,87.6928711 37.9321289,84.7734375 C37.9321289,81.8544923 40.3076172,79.4794923 43.2265625,79.4794923 C46.1459961,79.4794923 48.5209961,81.8544923 48.5209961,84.7734375 Z M39.8071289,84.7734375 C39.8071289,86.6586914 41.3413086,88.1928711 43.2265625,88.1928711 C45.1118164,88.1928711 46.6455077,86.6586914 46.6455077,84.7734375 C46.6455077,82.8881836 45.1118164,81.3544923 43.2265625,81.3544923 C41.3408203,81.3544923 39.8071289,82.8881836 39.8071289,84.7734375 Z" id="Combined-Shape" fill="#412E9E"></path>
            </g>
        </g>
    </g>
</svg>