<?xml version="1.0" encoding="UTF-8"?>
<svg width="128px" height="128px" viewBox="0 0 128 128" version="1.1" xmlns="http://www.w3.org/2000/svg" xmlns:xlink="http://www.w3.org/1999/xlink">
    <!-- Generator: Sketch 55.2 (78181) - https://sketchapp.com -->
    <title>hands</title>
    <desc>Created with Sketch.</desc>
    <g id="Sample-Page" stroke="none" stroke-width="1" fill="none" fill-rule="evenodd">
        <g id="vynl-homepage" transform="translate(-307.000000, -1760.000000)">
            <g id="hands" transform="translate(307.000000, 1760.000000)">
                <path d="M64,128 C99.346224,128 128,99.346224 128,64 C128,52.5598294 128,31.2264961 128,-9.9475983e-14 C97.4573121,-9.9475983e-14 76.1239788,-9.9475983e-14 64,-9.9475983e-14 C28.653776,-9.9475983e-14 0,28.653776 0,64 C0,99.346224 28.653776,128 64,128 Z" id="Oval" fill="#FAD1E0"></path>
                <path d="M59.0985422,35.3655361 C59.330589,35.5975828 59.4628307,35.9194542 59.4628307,36.2475634 C59.4628307,36.5756725 59.330589,36.8975439 59.0985422,37.1295906 C58.8652479,37.3616374 58.5446241,37.4951267 58.2152674,37.4951267 C57.8871582,37.4951267 57.5652868,37.3616374 57.3332401,37.1295906 C57.1011933,36.8975439 56.967704,36.5756725 56.967704,36.2475634 C56.967704,35.9194542 57.1011933,35.5975828 57.3332401,35.3655361 C57.5652868,35.1334893 57.8871582,35 58.2152674,35 C58.5446241,35 58.8652479,35.1334893 59.0985422,35.3655361 Z M76.0342147,55.750347 C76.2052557,56.618152 76.0242342,57.497809 75.5242108,58.2275088 C75.0241874,58.9572086 74.2690373,59.4437583 73.3979886,59.5973333 C72.5384175,59.7486628 71.6905734,59.5456842 71.0117742,59.089575 L71.0117742,64.9010994 C71.0117742,66.6773801 69.5665968,68.1225575 67.7903161,68.1225575 C67.4572167,68.1225575 67.1358444,68.0717817 66.833435,67.9774659 C66.3534974,69.1546667 65.1967566,69.9866667 63.8491387,69.9866667 C62.5015208,69.9866667 61.3451543,69.1545419 60.8652167,67.9773411 C60.5628073,68.0716569 60.241435,68.1224327 59.9083356,68.1224327 C58.4932245,68.1224327 57.2892011,67.2049747 56.8576689,65.9338324 C56.5747215,66.015423 56.2763044,66.059961 55.9675325,66.059961 C54.1912518,66.059961 52.7460744,64.6147836 52.7460744,62.8385029 L52.7460744,58.4681637 L52.7460744,55.5073216 L52.7460744,51.8689279 C52.7460744,48.9462612 53.8858482,46.2001248 55.9554311,44.1364055 L56.9680783,43.1267524 L56.9680783,40.696499 C56.9680783,40.0074698 57.5266124,39.4489357 58.2156416,39.4489357 C58.9046709,39.4489357 59.463205,40.0074698 59.463205,40.696499 L59.463205,43.644616 C59.463205,43.9760936 59.3312128,44.2939727 59.0965461,44.5280156 L57.7172401,45.9033294 C56.1204837,47.4954698 55.2412011,49.6142066 55.2412011,51.8690526 L55.2412011,55.5074464 L55.2412011,58.4682885 L55.2412011,62.8386277 C55.2412011,63.2390955 55.5670646,63.5649591 55.9675325,63.5649591 C56.3358132,63.5649591 56.6402186,63.2892476 56.6870022,62.9335673 L56.6870022,59.6975127 C56.6870022,59.0084834 57.2455364,58.4499493 57.9345656,58.4499493 C57.9356884,58.4499493 57.936936,58.4500741 57.9380588,58.4500741 C57.9391816,58.4500741 57.9404291,58.4499493 57.941552,58.4499493 C58.6305812,58.4499493 59.1891153,59.0084834 59.1891153,59.6975127 L59.1891153,62.8386277 C59.1891153,62.9063704 59.1862459,62.9733645 59.182129,63.0401092 L59.182129,64.9012242 C59.182129,65.301692 59.5079925,65.6275556 59.9084603,65.6275556 C60.276741,65.6275556 60.5811465,65.3518441 60.6279301,64.9961637 L60.6279301,59.6975127 C60.6279301,59.0084834 61.1864642,58.4499493 61.8754935,58.4499493 C61.8766163,58.4499493 61.8778638,58.4500741 61.8789867,58.4500741 C61.8801095,58.4500741 61.881357,58.4499493 61.8824798,58.4499493 C62.5715091,58.4499493 63.1300432,59.0084834 63.1300432,59.6975127 L63.1300432,64.9010994 C63.1300432,64.9688421 63.1271738,65.0358363 63.1230568,65.1025809 L63.1230568,66.7653333 C63.1230568,67.1658012 63.4489204,67.4916647 63.8493882,67.4916647 C64.249856,67.4916647 64.5757196,67.1658012 64.5757196,66.7653333 L64.5757196,65.1033294 C64.5716026,65.03646 64.5687332,64.9690916 64.5687332,64.9010994 L64.5687332,59.6975127 C64.5687332,59.0084834 65.1272674,58.4499493 65.8162966,58.4499493 C65.8174194,58.4499493 65.818667,58.4500741 65.8197898,58.4500741 C65.8209126,58.4500741 65.8220354,58.4499493 65.8232829,58.4499493 C66.5123122,58.4499493 67.0708463,59.0084834 67.0708463,59.6975127 L67.0708463,64.996538 C67.1177547,65.3519688 67.4220354,65.6274308 67.7901913,65.6274308 C68.1906592,65.6274308 68.5165227,65.3015673 68.5165227,64.9010994 L68.5165227,54.7532943 C68.5165227,53.9630877 69.0859106,53.3207173 69.8703785,53.2259025 C70.6549711,53.1307135 71.3608424,53.619384 71.5490997,54.386885 L72.0831816,56.5651306 C72.1794935,56.9577388 72.5672362,57.2108694 72.9645851,57.1400078 C73.169934,57.1038285 73.3480861,56.9890526 73.4659808,56.8170136 C73.5838755,56.6449747 73.6265422,56.4375049 73.5862459,56.2329045 L72.5526397,50.9915166 C72.2273999,49.3422378 71.4262147,47.8430409 70.2357898,46.6558596 L68.1018327,44.5278908 C67.867166,44.293848 67.7351738,43.9759688 67.7351738,43.6444912 L67.7351738,36.2475634 C67.7351738,35.5585341 68.2937079,35 68.9827371,35 C69.6717664,35 70.2303005,35.5585341 70.2303005,36.2475634 L70.2303005,43.1267524 L71.9975987,44.8891852 C73.5407098,46.4278051 74.5791816,48.3711345 75.0006085,50.5089591 L76.0342147,55.750347 Z M63.0735286,80.9971618 C63.9616689,82.5355322 63.4328268,84.5096764 61.8944564,85.3978168 L58.1095987,87.5830487 L57.8961406,87.706308 L55.545357,89.0635322 C55.545357,89.0636569 55.5452323,89.0636569 55.5452323,89.0636569 L52.394511,90.882729 C49.8633297,92.344 46.915088,92.7298713 44.0932245,91.9696062 L42.7125461,91.5974581 L39.2551738,93.5935595 C39.0586826,93.706963 38.8441017,93.7608578 38.6325149,93.7608578 C38.201357,93.7608578 37.782051,93.5371696 37.5510022,93.1369513 C37.2064252,92.5402417 37.4109009,91.777232 38.0076104,91.4327797 L41.9134818,89.1776842 C42.2005461,89.011883 42.5416299,88.9670955 42.8618794,89.0534269 L44.7425812,89.5603119 C46.919704,90.1469162 49.1942615,89.8492476 51.1470724,88.7218246 L56.6487021,85.5454035 L60.6470178,83.237037 C60.9938405,83.0366784 61.1131075,82.5915478 60.9128736,82.2447251 C60.8158132,82.0766784 60.659244,81.956538 60.4718599,81.9062612 C60.3155403,81.8643431 60.1537313,81.8760702 60.0067683,81.9372008 L57.2038677,83.5554152 C57.0073765,83.6688187 56.7927956,83.7227135 56.5812089,83.7227135 C56.1378249,83.7227135 55.7182693,83.4755712 55.496203,83.092694 C55.151626,82.4959844 55.3561017,81.7329747 55.9528112,81.3885224 L58.6731231,79.8179649 C58.7318833,79.7841559 58.7916416,79.7528421 58.8517742,79.7229006 L60.4628775,78.7927173 C60.8097001,78.5923587 60.9289672,78.1472281 60.7287332,77.8004055 C60.5444681,77.4814035 60.1534818,77.3557739 59.822129,77.4931306 L55.2334662,80.1424561 C55.036975,80.2558596 54.8223941,80.3097544 54.6108073,80.3097544 C54.2669789,80.3097544 53.9323824,80.1655361 53.6930997,79.9049201 C53.6297235,79.8364288 53.5725851,79.7604522 53.5258015,79.6797349 C53.1812245,79.0830253 53.3857001,78.3200156 53.9824097,77.9755634 L58.4889828,75.37377 C58.5476182,75.339961 58.607127,75.3088967 58.6668853,75.2790799 L60.1069477,74.4477037 C60.4537703,74.247345 60.5730373,73.8022144 60.3728034,73.4553918 C60.1724447,73.1084444 59.7273141,72.9893021 59.3804915,73.1895361 L57.9410529,74.020538 C57.8850373,74.0575906 57.8281484,74.09377 57.769513,74.1275789 L53.2629399,76.7293723 C52.6661056,77.0738246 51.9032206,76.8694737 51.5587683,76.2727641 C51.5581445,76.2717661 51.5577703,76.2706433 51.5571465,76.2696452 C51.5565227,76.2686472 51.5558989,76.2677739 51.5552752,76.2667758 C51.2106982,75.6700663 51.4151738,74.9070565 52.0118833,74.5626043 L56.5799613,71.9252554 C56.7164447,71.8276959 56.8164993,71.6898402 56.8604136,71.5257856 C56.9105656,71.3384016 56.884741,71.1426589 56.7878054,70.9746121 C56.6907449,70.8065653 56.534051,70.6863002 56.346667,70.6361481 C56.1591582,70.5859961 55.9634155,70.6116959 55.7954935,70.7087563 L47.0072829,75.7825965 C46.3229944,76.1779493 45.482012,76.0059103 45.0075636,75.37377 C44.5332401,74.7416296 44.6031036,73.8861754 45.1737391,73.3394932 L46.7930763,71.7877739 C47.0848814,71.5081949 47.1100822,71.0465965 46.8502147,70.737076 C46.7161017,70.5772632 46.5278444,70.4804522 46.3198755,70.4643587 C46.1115325,70.4482651 45.9109243,70.514885 45.753856,70.6522417 L41.7314623,74.1681248 C40.4656845,75.2744639 39.5678132,76.7178947 39.1350334,78.342347 L38.3591738,81.2545341 C38.2738405,81.5747836 38.0644993,81.8478752 37.777435,82.0136764 L33.8715636,84.2687719 C33.6750724,84.3821754 33.4604915,84.4360702 33.2489048,84.4360702 C32.8177469,84.4361949 32.3984408,84.2123821 32.1673921,83.8121637 C31.8228151,83.2154542 32.0272907,82.4524444 32.6240003,82.1079922 L36.0813726,80.1118908 L36.7238677,77.7001014 C37.284897,75.5944639 38.4486241,73.7236179 40.0892946,72.2895439 L44.1116884,68.7736608 C44.7777625,68.1915478 45.6307215,67.9092242 46.5121251,67.9767173 C47.3940276,68.0449591 48.1928424,68.4556569 48.7614818,69.1333333 C49.3226358,69.8020273 49.5704019,70.6376452 49.5148853,71.4535517 L54.5478054,68.5478519 C55.2930997,68.1174425 56.1611543,68.0031657 56.9924058,68.2259805 C57.8235325,68.4486706 58.5183005,68.9817544 58.9484603,69.726924 C59.1132635,70.0122417 59.2312829,70.3156491 59.3021445,70.628039 C60.5613102,70.4553762 61.8597742,71.0407329 62.5334584,72.2075789 C62.963743,72.9528733 63.0780198,73.8209279 62.8553297,74.6521793 C62.742051,75.0751033 62.5479301,75.462347 62.2868151,75.7978168 C62.5191114,76.0122729 62.7233375,76.2647797 62.889513,76.5525926 C63.5968814,77.7778246 63.4046319,79.278768 62.5201095,80.2882963 C62.7339418,80.4951423 62.9207021,80.7324288 63.0735286,80.9971618 Z M95.2514311,82.1077427 C95.8481406,82.4523197 96.0526163,83.2153294 95.7084136,83.81154 C95.4773648,84.2117583 95.0580588,84.4354464 94.6269009,84.4354464 C94.4151894,84.4354464 94.2007332,84.3815517 94.004242,84.2681481 L90.0983707,82.0130526 C89.8113063,81.8473762 89.6019652,81.5741598 89.5166319,81.2539103 L89.0151114,79.3718363 C88.4346202,77.1929669 87.0395948,75.3721481 85.0867839,74.2446004 L81.9360627,72.4255283 C81.9360627,72.4254035 81.9359379,72.4254035 81.9359379,72.4254035 L79.5851543,71.0681793 L79.3716962,70.9449201 L75.5868385,68.7596881 C75.4187917,68.6626277 75.2232985,68.6370526 75.035665,68.6870799 C74.848281,68.737232 74.6917118,68.8574971 74.5946514,69.0255439 C74.4106358,69.3444211 74.4972167,69.7458869 74.7817859,69.9642105 L77.5843122,71.5823002 C78.1810217,71.9267524 78.3854974,72.6897622 78.0409204,73.2864717 C77.9936377,73.3674386 77.9367488,73.44354 77.8729983,73.5122807 C77.6338405,73.7723977 77.2993687,73.9164912 76.9559145,73.9164912 C76.744203,73.916616 76.5297469,73.8625965 76.3332557,73.749193 L73.6129438,72.1786355 C73.5543083,72.1447018 73.4975442,72.1087719 73.4419028,72.0718441 L71.8301757,71.1412865 C71.662129,71.0442261 71.4662615,71.0185263 71.2790022,71.0686784 C71.0914935,71.1188304 70.9349243,71.2390955 70.8378638,71.4071423 C70.7408034,71.5751891 70.7151036,71.7709318 70.7652557,71.9583158 C70.8092946,72.1223704 70.9092245,72.2602261 71.0455831,72.3577856 L75.6137859,74.9952593 C76.2104954,75.3397115 76.4149711,76.1027212 76.0703941,76.6994308 C76.0232362,76.7803977 75.9662225,76.8566238 75.902472,76.925115 C75.6631894,77.1853567 75.3288424,77.3294503 74.9852635,77.3294503 C74.773552,77.329575 74.5590958,77.2755556 74.3626046,77.162152 L69.8561562,74.5603587 C69.7975208,74.526425 69.7405071,74.4903704 69.6844915,74.453193 L68.2451777,73.622191 C68.0772557,73.5252554 67.8816377,73.4994308 67.694129,73.5495828 C67.5066202,73.5998596 67.350051,73.72 67.2529906,73.8880468 C67.0527566,74.2349942 67.1720237,74.6801248 67.5188463,74.8803587 L68.9579106,75.7111111 C69.0181679,75.7411774 69.078051,75.7724912 69.136936,75.806425 L73.6433843,78.4082183 C74.2400939,78.7526706 74.4445695,79.5156803 74.0999925,80.1123899 C74.0529594,80.1934815 73.9956962,80.2697076 73.9319457,80.3383236 C73.6926631,80.5984405 73.3583161,80.7424094 73.0148619,80.7424094 C72.8031504,80.7425341 72.5886943,80.6885146 72.392203,80.5751111 L67.8029165,77.9255361 C67.6560783,77.8645302 67.4943941,77.8528031 67.3379496,77.8947212 C67.1505656,77.9449981 66.9939964,78.0651384 66.896936,78.2331852 C66.6967021,78.5801326 66.8159691,79.0252632 67.1627917,79.2254971 L75.9510022,84.2993372 C76.6354155,84.6944405 76.9068853,85.5087251 76.596741,86.2355556 C76.286472,86.9625107 75.5107371,87.3299181 74.7518444,87.1088499 L72.5984252,86.4821988 C72.210433,86.3695439 71.7979886,86.5782612 71.6598833,86.9580195 C71.5885227,87.1540117 71.5987527,87.3655984 71.6888268,87.553731 C71.7789009,87.7418635 71.9372167,87.8825887 72.1345812,87.9499571 L77.1905812,89.6755867 C78.7817235,90.2186511 80.48078,90.2745419 82.1038599,89.8370214 L85.0136767,89.0529279 C85.3338015,88.9664717 85.67501,89.0112593 85.9620744,89.1770604 L89.8679457,91.4321559 C90.4646553,91.7766082 90.6691309,92.5396179 90.3245539,93.1363275 C90.0935052,93.5365458 89.6741991,93.7602341 89.2430412,93.7602341 C89.0313297,93.7602341 88.8168736,93.7063392 88.6203824,93.5929357 L85.16301,91.5968343 L82.7530919,92.2463158 C80.6492011,92.8132086 78.4470022,92.7409747 76.3846553,92.0369747 L71.32878,90.311345 C70.491665,90.025653 69.8203512,89.4289435 69.4383473,88.6310019 C69.0564681,87.8330604 69.0128034,86.9359376 69.3153375,86.1046862 C69.6138794,85.284538 70.2139574,84.6520234 70.9481484,84.2921014 L65.9152284,81.3862768 C64.3769828,80.4981365 63.8480159,78.5239922 64.7361562,76.9856218 C64.9008346,76.7003041 65.1046865,76.446425 65.3397274,76.2288499 C64.5606241,75.2246862 64.4184019,73.8074542 65.0920861,72.6406082 C65.7657703,71.4738869 67.0642342,70.8884055 68.3233999,71.0609435 C68.3942615,70.7486784 68.512281,70.445271 68.6769594,70.1599532 C69.1071192,69.4147836 69.8018872,68.8816998 70.6330139,68.6590097 C71.1194389,68.5285146 71.6184642,68.5145419 72.0981523,68.6108538 C72.1690139,68.3256608 72.2794233,68.0453333 72.4336221,67.7783548 C72.863782,67.0331852 73.55855,66.5001014 74.3896767,66.2774113 C75.2206787,66.0547212 76.088858,66.1689981 76.8341523,66.5992827 L80.8324681,68.9076491 L86.3340978,72.0840702 C88.8651543,73.5454659 90.6734974,75.9056062 91.4259028,78.7298402 L91.7940588,80.1116413 L95.2514311,82.1077427 Z" id="Combined-Shape" fill="#BF406F" fill-rule="nonzero"></path>
            </g>
        </g>
    </g>
</svg>