<?xml version="1.0" encoding="UTF-8"?>
<svg width="128px" height="128px" viewBox="0 0 128 128" version="1.1" xmlns="http://www.w3.org/2000/svg" xmlns:xlink="http://www.w3.org/1999/xlink">
    <!-- Generator: Sketch 55.2 (78181) - https://sketchapp.com -->
    <title>rocket</title>
    <desc>Created with Sketch.</desc>
    <g id="Sample-Page" stroke="none" stroke-width="1" fill="none" fill-rule="evenodd">
        <g id="vynl-homepage" transform="translate(-499.000000, -1760.000000)">
            <g id="rocket" transform="translate(499.000000, 1760.000000)">
                <path d="M64,128 C99.346224,128 128,99.346224 128,64 C128,52.5598294 128,31.2264961 128,-9.9475983e-14 C97.4573121,-9.9475983e-14 76.1239788,-9.9475983e-14 64,-9.9475983e-14 C28.653776,-9.9475983e-14 0,28.653776 0,64 C0,99.346224 28.653776,128 64,128 Z" id="Oval-Copy-7" fill="#D1FAF0"></path>
                <path d="M65.5825781,62.4188873 C66.0700781,62.9063873 66.0700781,63.6976373 65.5825781,64.1863873 C65.0938281,64.6738873 64.3025781,64.6738873 63.8138281,64.1863873 C63.3263281,63.6976373 63.3263281,62.9063873 63.8138281,62.4188873 C64.3025781,61.9301373 65.0938281,61.9301373 65.5825781,62.4188873 Z M81.4914531,46.5087623 C83.9342031,48.9513873 83.9337031,52.9055123 81.4914531,55.3477623 C79.0547031,57.7845123 75.0897031,57.7835123 72.6527031,55.3480123 C70.2160781,52.9098873 70.2162031,48.9448873 72.6523281,46.5087623 C75.0949531,44.0662623 79.0489531,44.0663873 81.4914531,46.5087623 Z M79.7237031,53.5798873 C81.1893281,52.1143873 81.1890781,49.7417623 79.7237031,48.2765123 C78.2580781,46.8108873 75.8855781,46.8111373 74.4202031,48.2765123 C72.9584531,49.7381373 72.9585781,52.1173873 74.4204531,53.5801373 C75.8828281,55.0416373 78.2620781,55.0416373 79.7237031,53.5798873 Z M95.6335781,32.3661373 C95.8789531,32.6116373 96.0113281,32.9480123 95.9988281,33.2948873 C95.9887031,33.5773873 95.7183281,40.3068873 92.8908281,48.3066373 C90.6275781,54.7161373 87.3873281,60.0590123 83.2598281,64.1865123 C82.3345781,65.1117623 81.3537031,66.0117623 80.3353281,66.8725123 C82.7375781,70.9536373 81.9843281,74.2238873 80.8779531,76.2910123 C78.3304531,81.0511373 71.4135781,83.9976373 66.4660781,83.9976373 C65.9604531,83.9976373 65.5047031,83.6930123 65.3113281,83.2258873 C65.1178281,82.7588873 65.2248281,82.2212623 65.5822031,81.8637623 C68.0924531,79.3536373 67.9354531,76.2572623 67.8025781,75.2456373 L67.3648281,74.8078873 C65.3145781,75.6695123 63.2763281,76.3632623 61.2945781,76.8721373 C60.6140781,77.0465123 59.8573281,77.0108873 59.1220781,76.7217623 C58.5674531,77.9250123 57.7532031,79.0860123 56.7425781,80.0966373 C53.5249531,83.3142623 45.6829531,83.9676373 45.3507031,83.9937623 C45.3178281,83.9963873 45.2849531,83.9976373 45.2522031,83.9976373 C44.9222031,83.9976373 44.6038281,83.8667623 44.3684531,83.6315123 C44.1098281,83.3728873 43.9775781,83.0138873 44.0063281,82.6492623 C44.0325781,82.3170123 44.6859531,74.4752623 47.9035781,71.2575123 C48.9145781,70.2465123 50.0757031,69.4321373 51.2792031,68.8775123 C51.0060781,68.1830123 50.9440781,67.4237623 51.1278281,66.7062623 C51.6368281,64.7236373 52.3308281,62.6851373 53.1923281,60.6351373 L52.7545781,60.1973873 C51.7430781,60.0643873 48.6467031,59.9073873 46.1363281,62.4177623 C45.8972031,62.6567623 45.5775781,62.7838873 45.2522031,62.7838873 C45.0912031,62.7838873 44.9287031,62.7527623 44.7740781,62.6886373 C44.3070781,62.4952623 44.0020781,62.0393873 44.0020781,61.5338873 C44.0020781,56.5863873 46.9484531,49.6693873 51.7085781,47.1218873 C53.7759531,46.0155123 57.0462031,45.2622623 61.1272031,47.6645123 C61.9883281,46.6456373 62.8883281,45.6648873 63.8132031,44.7400123 C67.9405781,40.6125123 73.2834531,37.3721373 79.6934531,35.1088873 C87.6928281,32.2815123 94.4222031,32.0110123 94.7048281,32.0008873 C95.0530781,31.9877623 95.3880781,32.1207623 95.6335781,32.3661373 Z M46.7968281,58.8452623 C50.1524531,57.0618873 53.4598281,57.7732623 53.6317031,57.8121373 C54.0497031,57.9063873 54.2747031,58.1892623 54.2933281,58.2007623 C55.7604531,55.1713873 57.5205781,52.3026373 59.5452031,49.6398873 C57.1687031,48.3390123 54.9335781,48.2317623 52.8887031,49.3260123 C49.8287031,50.9637623 47.5733281,55.0873873 46.7968281,58.8452623 Z M54.9748281,78.3287623 C55.9374531,77.3662623 56.6670781,76.2502623 57.0780781,75.1285123 L52.8715781,70.9220123 C51.7498281,71.3330123 50.6338281,72.0627623 49.6713281,73.0252623 C47.9527031,74.7438873 47.0460781,78.7756373 46.6758281,81.3241373 C49.2242031,80.9540123 53.2560781,80.0475123 54.9748281,78.3287623 Z M60.6735781,74.4503873 C62.2322031,74.0502623 63.8317031,73.5267623 65.4470781,72.8898873 L55.1102031,62.5530123 C54.4734531,64.1681373 53.9498281,65.7678873 53.5494531,67.3271373 C53.4570781,67.6882623 53.5930781,68.1071373 53.9048281,68.4195123 C55.8764531,70.3912623 56.7690781,71.2838873 57.1330781,71.6478873 C57.3315781,71.8462623 57.9642031,72.4788873 59.5813281,74.0960123 C59.8928281,74.4070123 60.3118281,74.5430123 60.6735781,74.4503873 Z M78.6740781,75.1113873 C79.7682031,73.0668873 79.6610781,70.8315123 78.3602031,68.4547623 C75.6972031,70.4793873 72.8285781,72.2395123 69.7994531,73.7066373 C69.8142031,73.7305123 70.0779531,73.9337623 70.1795781,74.3380123 C70.6173281,76.0783873 70.3532031,78.9485123 69.1550781,81.2031373 C72.9128281,80.4267623 77.0363281,78.1712623 78.6740781,75.1113873 Z M81.4923281,62.4187623 C85.1958281,58.7153873 88.1430781,53.9361373 90.2643281,48.2097623 L79.7903281,37.7357623 C74.0638281,39.8572623 69.2845781,42.8045123 65.5814531,46.5077623 C64.4555781,47.6335123 63.3675781,48.8465123 62.3470781,50.1131373 C59.8973281,53.1555123 57.8220781,56.5045123 56.1700781,60.0777623 L67.9225781,71.8300123 C71.4955781,70.1780123 74.8445781,68.1027623 77.8873281,65.6527623 C79.1530781,64.6331373 80.3659531,63.5450123 81.4923281,62.4187623 Z M91.1637031,45.5733873 C92.6420781,40.8137623 93.1958281,36.6726373 93.3949531,34.6052623 C91.3279531,34.8042623 87.1868281,35.3578873 82.4267031,36.8363873 L91.1637031,45.5733873 Z M62.0462031,83.6311373 C62.5343281,84.1191373 62.5344531,84.9106373 62.0464531,85.3988873 L58.5114531,88.9351373 C58.0234531,89.4233873 57.2319531,89.4233873 56.7435781,88.9353873 C56.2554531,88.4473873 56.2553281,87.6558873 56.7433281,87.1676373 L60.2783281,83.6313873 C60.7663281,83.1432623 61.5578281,83.1430123 62.0462031,83.6311373 Z M44.3690781,65.9538873 C44.8570781,66.4421373 44.8569531,67.2336373 44.3687031,67.7216373 L40.8324531,71.2566373 C40.3439531,71.7448873 39.5525781,71.7443873 39.0647031,71.2563873 C38.5767031,70.7681373 38.5768281,69.9766373 39.0650781,69.4886373 L42.6013281,65.9536373 C43.0897031,65.4656373 43.8810781,65.4656373 44.3690781,65.9538873 Z M53.2077031,85.4000123 C53.6958281,85.8881373 53.6958281,86.6796373 53.2075781,87.1677623 L44.7400781,95.6340123 C44.2518281,96.1222623 43.4602031,96.1220123 42.9723281,95.6338873 C42.4842031,95.1457623 42.4842031,94.3542623 42.9724531,93.8661373 L51.4399531,85.3998873 C51.9282031,84.9118873 52.7198281,84.9118873 53.2077031,85.4000123 Z M43.2077031,85.4000123 C43.6958281,85.8881373 43.6958281,86.6796373 43.2075781,87.1677623 L34.7400781,95.6340123 C34.2518281,96.1222623 33.4602031,96.1220123 32.9723281,95.6338873 C32.4842031,95.1457623 32.4842031,94.3542623 32.9724531,93.8661373 L41.4399531,85.3998873 C41.9280781,84.9118873 42.7197031,84.9118873 43.2077031,85.4000123 Z M42.6000781,74.7922623 C43.0883281,75.2805123 43.0883281,76.0718873 42.6002031,76.5601373 L34.1339531,85.0276373 C33.6458281,85.5158873 32.8543281,85.5158873 32.3662031,85.0277623 C31.8779531,84.5395123 31.8779531,83.7481373 32.3660781,83.2598873 L40.8323281,74.7923873 C41.3204531,74.3042623 42.1120781,74.3042623 42.6000781,74.7922623 Z M70.8852031,57.1148873 C71.3733281,57.6031373 71.3733281,58.3946373 70.8852031,58.8827623 L69.1177031,60.6502623 C68.6294531,61.1383873 67.8380781,61.1383873 67.3498281,60.6502623 C66.8617031,60.1620123 66.8617031,59.3705123 67.3498281,58.8823873 L69.1173281,57.1148873 C69.6057031,56.6267623 70.3969531,56.6267623 70.8852031,57.1148873 Z" id="Combined-Shape" fill="#169C7D" fill-rule="nonzero"></path>
            </g>
        </g>
    </g>
</svg>