<svg width="692" height="603" xmlns="http://www.w3.org/2000/svg">
  <g fill="none" fill-rule="evenodd">
    <path d="M172.901 24.0486C301.827-9.9718 451.7662-9.5786 599.6562 36.0558s95.5744 198.0455.153 284.8107c-95.4215 86.7652-280.4671 371.0011-393.3831 254.5132C93.5102 458.892 43.9748 58.069 172.9009 24.0486zM435.519 589.3882c-7.9618 0-13.7608-4.9553-13.7608-12.8578 0-7.9024 3.6316-15.159 11.5933-15.159 7.9618 0 17.39 6.6563 17.39 14.5587s-7.2607 13.458-15.2225 13.458zm47.326 7.0042c-4.1182 0-7.1177-2.4777-7.1177-6.4289 0-3.9512 1.8784-7.5795 5.9965-7.5795 4.1182 0 8.9949 3.3281 8.9949 7.2793s-3.7556 6.729-7.8738 6.729zm-.2312-43.0259c-12.08 0-20.8785-7.433-20.8785-19.2866s5.51-22.7386 17.5899-22.7386c12.08 0 26.3849 9.9845 26.3849 21.8381s-11.0164 20.1871-23.0963 20.1871zM13.7609 111.101C5.799 111.1009 0 106.1456 0 98.2432 0 90.3407 3.6316 83.084 11.5934 83.084c7.9617 0 17.39 6.6564 17.39 14.5588s-7.2608 13.458-15.2226 13.458zm43.3281 14.0084c-4.1181 0-7.1176-2.4777-7.1176-6.4289 0-3.9512 1.8784-7.5795 5.9965-7.5795 4.1182 0 8.9949 3.3281 8.9949 7.2793 0 3.9513-3.7556 6.729-7.8738 6.729zm3.7666-50.03c-12.08 0-20.8785-7.433-20.8785-19.2866 0-11.8537 5.51-22.7387 17.59-22.7387 12.0799 0 26.3848 9.9845 26.3848 21.8381S72.9355 75.0792 60.8556 75.0792z" fill="#EBE8FC"/>
    <ellipse fill="#241769" cx="347.5497" cy="264" rx="190.5497" ry="191"/>
    <path d="M347.5497 330.012c-36.3715 0-65.8563-29.5546-65.8563-66.012s29.4848-66.012 65.8563-66.012c36.3714 0 65.8562 29.5546 65.8562 66.012s-29.4848 66.012-65.8562 66.012zm.2064-61.2525c2.7364 0 4.9547-2.2236 4.9547-4.9664 0-2.743-2.2183-4.9664-4.9547-4.9664-2.7364 0-4.9547 2.2235-4.9547 4.9664 0 2.7428 2.2183 4.9664 4.9547 4.9664z" fill="#D8D1FA"/>
    <path d="M189.0057 184.065c3.6765-6.7802 6.3581-11.5202 8.0448-14.22 9.3437-14.9552 18.7848-26.4858 27.6638-34.7648 11.7745-10.979 28.5885-22.0767 50.4418-33.2932a4.743 4.743 0 0 1 .7275-.3c.7205-.2293 1.1432-.344 1.268-.344 1.2702 0 2.2999 1.0297 2.2999 2.3 0 .26-.0442.5183-.1306.7637-.0438.1245-.0788.2069-.1049.2473-.3616.5593-1.3613 1.1194-1.6515 1.2416-20.6446 8.6912-39.996 24.3043-48.7213 32.6955-5.9005 5.6746-13.8878 13.1784-21.8833 24.4182-2.942 4.1358-7.6367 11.9181-14.084 23.3471-.5947 1.054-1.9234 1.4382-2.9888.8642-1.059-.5706-1.4548-1.8916-.8842-2.9505a.2771.2771 0 0 1 .0028-.005zm13.4028-2.5738c2.9914-5.4765 5.172-9.305 6.5419-11.4855 7.5814-12.068 15.2256-21.3827 22.4027-28.0805 9.518-8.8822 23.0888-17.8832 40.7123-27.003a3.8434 3.8434 0 0 1 .5835-.2433c.5811-.188.922-.2823 1.0223-.2828 1.0103-.0058 1.834.8085 1.8398 1.8188a1.8293 1.8293 0 0 1-.1038.6181c-.0385.1095-.069.1814-.0912.2157-.2934.4514-1.0998.9064-1.3337 1.006-16.6392 7.0834-32.2705 19.7265-39.3245 26.5137-4.7704 4.5899-11.227 10.6602-17.7075 19.7344-2.3857 3.3408-6.199 9.6247-11.4399 18.852-.479.8435-1.5432 1.1514-2.3987.694-.8435-.4511-1.1616-1.5006-.7106-2.344a1.4717 1.4717 0 0 1 .0074-.0136zm8.9328 3.3299c2.6796-4.936 4.634-8.3866 5.863-10.352 6.8071-10.8855 13.6829-19.2799 20.1474-25.3084 8.5728-7.9946 20.8116-16.079 36.7163-24.2533a3.458 3.458 0 0 1 .5295-.2188c.5243-.1673.8318-.251.9226-.251.9223-.0009 1.6707.7461 1.6716 1.6685a1.67 1.67 0 0 1-.0948.556c-.0323.0921-.0581.153-.0773.1826-.2635.4071-.991.8153-1.2023.9043-15.0237 6.3365-29.1114 17.7073-35.4642 23.8174-4.2962 4.132-10.1116 9.596-15.9355 17.7778-2.143 3.0108-5.564 8.676-10.2624 16.9956-.4327.7661-1.3987 1.0454-2.1735.6285-.7691-.414-1.057-1.373-.6432-2.1421l.0028-.0051zm9.0266 1.357c2.6024-4.3675 4.4867-7.42 5.6529-9.1578 6.3843-9.514 12.6619-16.9581 18.4414-22.4052 7.6683-7.2275 18.3983-14.7725 32.1899-22.635.1323-.0754.27-.141.4118-.1963.4606-.1794.7293-.2722.806-.2784.6604-.053 1.2387.4393 1.2918 1.0996a1.1995 1.1995 0 0 1-.0779.5312c-.0567.1457-.098.2371-.1237.2743-.2461.3565-.8788.7444-1.0605.8325-12.9265 6.2695-25.405 16.669-31.0967 22.1767-3.8492 3.7246-9.051 8.6587-14.4387 15.8564-1.9963 2.6669-5.2482 7.6601-9.7559 14.9797a1.3702 1.3702 0 0 1-1.7588.5172c-.5619-.2692-.7992-.943-.53-1.505a1.1159 1.1159 0 0 1 .0484-.09zm-1.0309 16.0065c2.9914-5.4765 5.172-9.305 6.542-11.4855 7.5814-12.068 15.2255-21.3827 22.4027-28.0805 9.518-8.8822 23.0888-17.8832 40.7123-27.003a3.8434 3.8434 0 0 1 .5834-.2433c.5812-.188.922-.2823 1.0224-.2828 1.0103-.0058 1.834.8085 1.8398 1.8188a1.8293 1.8293 0 0 1-.1038.618c-.0385.1096-.069.1815-.0913.2158-.2933.4514-1.0997.9064-1.3336 1.006-16.6392 7.0834-32.2705 19.7265-39.3246 26.5137-4.7704 4.5899-11.227 10.6601-17.7074 19.7344-2.3858 3.3407-6.199 9.6247-11.4399 18.852-.479.8435-1.5432 1.1514-2.3987.694-.8435-.4511-1.1616-1.5006-.7106-2.344a1.5098 1.5098 0 0 1 .0073-.0136zm8.9328 3.3299c2.6797-4.936 4.634-8.3866 5.863-10.352 6.8072-10.8855 13.683-19.2799 20.1475-25.3084 8.5728-7.9946 20.8115-16.079 36.7163-24.2533a3.4578 3.4578 0 0 1 .5295-.2188c.5242-.1673.8317-.251.9225-.251.9224-.0009 1.6708.7461 1.6717 1.6685a1.67 1.67 0 0 1-.0948.556c-.0323.0921-.0581.153-.0773.1826-.2635.4071-.991.8152-1.2023.9043-15.0237 6.3364-29.1114 17.7073-35.4643 23.8174-4.2961 4.132-10.1115 9.596-15.9354 17.7778-2.1431 3.0108-5.564 8.676-10.2624 16.9956-.4327.766-1.3987 1.0454-2.1735.6285-.7692-.414-1.0571-1.373-.6432-2.1421l.0027-.0051zm10.3022 2.2135c2.2631-4.4852 3.9236-7.6214 4.9815-9.4087 5.9115-9.9879 12.0142-17.6073 17.8462-23.0018 7.7312-7.1513 18.9356-14.2016 33.613-21.151a3.1124 3.1124 0 0 1 .5218-.192c.4803-.1295.7632-.192.8485-.1875.0503.0026.244.0398.5811.1115.8091.172 1.3255.9674 1.1535 1.7765a1.4978 1.4978 0 0 1-.1894.4733c-.2295.373-.8996.7235-1.0956.7974-13.9417 5.2518-26.7402 15.3305-32.462 20.808-3.8694 3.7043-9.1137 8.5959-14.2286 16.067-1.8724 2.735-4.8122 7.8992-8.8195 15.4927-.3904.7398-1.3067 1.023-2.0465.6327a1.5177 1.5177 0 0 1-.0483-.0266c-.7658-.4405-1.0537-1.4028-.6557-2.1915zm14.7922-2.0344c1.6692-3.3667 2.8958-5.721 3.6796-7.0629 4.3898-7.5145 8.9455-13.2328 13.316-17.2678 5.7934-5.3484 14.2188-10.5891 25.2763-15.7222a2.3343 2.3343 0 0 1 .3988-.1428c.3613-.0933.5742-.1379.6387-.1337.0394.0025.1949.0343.4664.0953.6155.1383 1.0023.7494.864 1.3649a1.1422 1.1422 0 0 1-.1384.3428c-.1706.2806-.6751.5401-.823.5943-10.5165 3.8539-20.1236 11.3753-24.41 15.4741-2.8986 2.7719-6.8283 6.431-10.637 12.0458-1.3925 2.0529-3.57 5.9323-6.5328 11.6384-.2914.561-.9824.7798-1.5436.4884a1.1457 1.1457 0 0 1-.049-.027c-.5864-.3419-.8075-1.0796-.506-1.6876zm6.6062 7.0358c1.6693-3.3667 2.8958-5.721 3.6797-7.063 4.3897-7.5145 8.9455-13.2328 13.316-17.2677 5.7934-5.3484 14.2188-10.5892 25.2762-15.7222a2.3343 2.3343 0 0 1 .3989-.1428c.3613-.0934.5742-.138.6387-.1338.0394.0025.1949.0343.4664.0953.6154.1383 1.0023.7494.864 1.365a1.1422 1.1422 0 0 1-.1384.3428c-.1706.2806-.6752.5401-.823.5943-10.5165 3.8539-20.1236 11.3753-24.41 15.474-2.8986 2.772-6.8284 6.431-10.637 12.0459-1.3925 2.0529-3.5701 5.9323-6.5328 11.6383-.2914.5611-.9825.7798-1.5436.4885a1.1445 1.1445 0 0 1-.0491-.027c-.5863-.342-.8075-1.0796-.506-1.6876zm4.5418 7.0357c1.6693-3.3667 2.8958-5.721 3.6797-7.0629 4.3897-7.5145 8.9455-13.2328 13.316-17.2678 5.7934-5.3484 14.2188-10.5891 25.2762-15.7222a2.3343 2.3343 0 0 1 .399-.1427c.3612-.0934.574-.138.6386-.1338.0394.0025.1949.0343.4664.0953.6155.1383 1.0023.7494.864 1.3649a1.1422 1.1422 0 0 1-.1384.3428c-.1706.2806-.6752.5402-.823.5943-10.5165 3.8539-20.1236 11.3753-24.41 15.4741-2.8986 2.7719-6.8284 6.431-10.637 12.0458-1.3925 2.053-3.57 5.9323-6.5328 11.6384-.2914.561-.9825.7798-1.5436.4884a1.1445 1.1445 0 0 1-.0491-.027c-.5863-.3419-.8075-1.0795-.506-1.6876zm9.0837 4.9664c1.6692-3.3667 2.8958-5.721 3.6797-7.0629 4.3897-7.5145 8.9454-13.2328 13.316-17.2677 5.7933-5.3485 14.2187-10.5892 25.2762-15.7223a2.3343 2.3343 0 0 1 .3988-.1427c.3613-.0934.5742-.138.6387-.1338.0394.0025.195.0343.4664.0953.6155.1383 1.0023.7494.864 1.3649a1.1422 1.1422 0 0 1-.1384.3428c-.1706.2806-.6751.5402-.823.5943-10.5165 3.854-20.1236 11.3753-24.41 15.4741-2.8986 2.772-6.8283 6.431-10.637 12.0459-1.3925 2.0528-3.57 5.9323-6.5328 11.6383-.2914.5611-.9824.7798-1.5436.4884a1.1451 1.1451 0 0 1-.049-.027c-.5864-.3419-.8075-1.0795-.506-1.6876zm4.5418 7.0358c1.6692-3.3667 2.8958-5.721 3.6797-7.063 4.3897-7.5145 8.9454-13.2328 13.316-17.2677 5.7933-5.3484 14.2187-10.5892 25.2762-15.7222a2.3343 2.3343 0 0 1 .3988-.1428c.3613-.0933.5742-.138.6387-.1338.0395.0026.195.0343.4664.0954.6155.1383 1.0023.7493.864 1.3648a1.1422 1.1422 0 0 1-.1384.3429c-.1705.2806-.6751.5401-.823.5943-10.5165 3.8539-20.1236 11.3753-24.41 15.4741-2.8986 2.7719-6.8283 6.431-10.637 12.0458-1.3924 2.0529-3.57 5.9323-6.5328 11.6383-.2913.5611-.9824.7798-1.5435.4885a1.1457 1.1457 0 0 1-.0492-.027c-.5863-.342-.8074-1.0796-.506-1.6876zm229.4991 110.7364c-3.6765 6.7802-6.3581 11.5202-8.0448 14.22-9.3437 14.9552-18.7848 26.4859-27.6638 34.7649-11.7745 10.979-28.5885 22.0766-50.4418 33.2931a4.743 4.743 0 0 1-.7275.3c-.7205.2294-1.1432.344-1.268.344-1.2702 0-2.2999-1.0297-2.2999-2.2999a2.3 2.3 0 0 1 .1306-.7638c.0438-.1244.0788-.2069.1049-.2472.3616-.5593 1.3613-1.1194 1.6515-1.2416 20.6446-8.6912 39.996-24.3044 48.7213-32.6956 5.9005-5.6746 13.8878-13.1784 21.8833-24.4182 2.942-4.1357 7.6367-11.918 14.084-23.347.5947-1.054 1.9234-1.4383 2.9888-.8642 1.059.5705 1.4548 1.8915.8842 2.9505a.2771.2771 0 0 1-.0028.005zm-13.4028 2.5738c-2.9914 5.4766-5.172 9.305-6.5419 11.4856-7.5814 12.0679-15.2256 21.3827-22.4027 28.0804-9.518 8.8822-23.0888 17.8832-40.7123 27.003a3.8434 3.8434 0 0 1-.5835.2434c-.5811.188-.922.2822-1.0224.2828-1.0102.0058-1.834-.8085-1.8398-1.8188a1.8293 1.8293 0 0 1 .1039-.6182c.0385-.1095.069-.1814.0912-.2157.2934-.4513 1.0998-.9063 1.3337-1.0059 16.6392-7.0834 32.2704-19.7265 39.3245-26.5137 4.7704-4.59 11.227-10.6602 17.7075-19.7345 2.3857-3.3407 6.199-9.6247 11.4399-18.852.479-.8435 1.5432-1.1513 2.3987-.6939.8435.451 1.1616 1.5005.7106 2.344a1.4962 1.4962 0 0 1-.0074.0135zm-8.9328-3.3298c-2.6796 4.936-4.634 8.3866-5.863 10.352-6.8071 10.8855-13.6829 19.2798-20.1474 25.3084-8.5728 7.9946-20.8116 16.079-36.7163 24.2532a3.4578 3.4578 0 0 1-.5295.2188c-.5243.1673-.8318.251-.9226.251-.9223.001-1.6707-.746-1.6716-1.6684a1.67 1.67 0 0 1 .0947-.5561c.0324-.092.0582-.153.0774-.1826.2635-.407.991-.8152 1.2023-.9043 15.0237-6.3364 29.1114-17.7073 35.4642-23.8174 4.2962-4.132 10.1116-9.596 15.9355-17.7778 2.143-3.0108 5.5639-8.676 10.2624-16.9955.4327-.7661 1.3987-1.0455 2.1735-.6285.7691.4139 1.057 1.373.6432 2.142l-.0028.0052zm-9.0266-1.357c-2.6024 4.3674-4.4867 7.42-5.6529 9.1578-6.3843 9.5139-12.6619 16.958-18.4414 22.4052-7.6683 7.2274-18.3983 14.7724-32.1899 22.635-.1323.0754-.27.141-.4118.1962-.4606.1795-.7293.2722-.806.2784-.6604.053-1.2387-.4392-1.2918-1.0995a1.1995 1.1995 0 0 1 .0779-.5312c.0567-.1457.098-.2372.1237-.2744.2461-.3564.8788-.7444 1.0605-.8325 12.9265-6.2695 25.405-16.669 31.0967-22.1766 3.8492-3.7246 9.051-8.6588 14.4387-15.8564 1.9963-2.667 5.2482-7.6602 9.7559-14.9797a1.3702 1.3702 0 0 1 1.7588-.5172c.5619.2692.7992.943.53 1.5049a1.1164 1.1164 0 0 1-.0484.09zm1.0309-16.0065c-2.9915 5.4765-5.172 9.305-6.542 11.4855-7.5814 12.068-15.2255 21.3827-22.4027 28.0804-9.518 8.8823-23.0888 17.8833-40.7123 27.003a3.8435 3.8435 0 0 1-.5834.2434c-.5812.188-.922.2822-1.0224.2828-1.0103.0058-1.834-.8085-1.8398-1.8188a1.8293 1.8293 0 0 1 .1038-.6181c.0385-.1095.069-.1814.0912-.2158.2934-.4513 1.0998-.9063 1.3337-1.0059 16.6392-7.0834 32.2705-19.7265 39.3246-26.5137 4.7703-4.59 11.227-10.6602 17.7074-19.7345 2.3858-3.3407 6.199-9.6247 11.4399-18.852.479-.8435 1.5432-1.1513 2.3987-.6939.8435.451 1.1616 1.5005.7106 2.344a1.51 1.51 0 0 1-.0073.0136zm-8.9328-3.33c-2.6797 4.936-4.634 8.3867-5.863 10.352-6.8072 10.8856-13.683 19.28-20.1475 25.3085-8.5728 7.9946-20.8115 16.079-36.7163 24.2532a3.4579 3.4579 0 0 1-.5295.2188c-.5242.1673-.8318.251-.9225.251-.9224.001-1.6708-.746-1.6717-1.6684a1.6701 1.6701 0 0 1 .0948-.556c.0323-.0922.0581-.153.0773-.1827.2635-.407.991-.8152 1.2023-.9043 15.0237-6.3364 29.1114-17.7073 35.4643-23.8174 4.2961-4.132 10.1115-9.596 15.9354-17.7778 2.1431-3.0108 5.564-8.676 10.2624-16.9955.4327-.7661 1.3987-1.0455 2.1735-.6285.7692.414 1.0571 1.373.6432 2.142l-.0027.0052zm-10.3022-2.2134c-2.2631 4.4851-3.9236 7.6214-4.9815 9.4087-5.9115 9.9878-12.0142 17.6073-17.8462 23.0018-7.7312 7.1512-18.9356 14.2015-33.613 21.1509a3.1123 3.1123 0 0 1-.5218.192c-.4803.1296-.7632.192-.8485.1876-.0503-.0027-.244-.0398-.5811-.1115-.8091-.172-1.3255-.9675-1.1535-1.7766a1.4978 1.4978 0 0 1 .1894-.4732c.2295-.3731.8996-.7236 1.0956-.7974 13.9417-5.2519 26.7402-15.3306 32.462-20.8081 3.8694-3.7042 9.1137-8.5958 14.2286-16.067 1.8724-2.7349 4.8122-7.8991 8.8195-15.4927.3904-.7398 1.3067-1.023 2.0465-.6326.0162.0086.0323.0174.0483.0266.7658.4405 1.0537 1.4027.6557 2.1915zm-14.7922 2.0343c-1.6692 3.3667-2.8958 5.721-3.6796 7.063-4.3898 7.5145-8.9455 13.2328-13.316 17.2677-5.7934 5.3484-14.2188 10.5892-25.2763 15.7222a2.3343 2.3343 0 0 1-.3988.1428c-.3613.0933-.5742.138-.6387.1338-.0394-.0025-.1949-.0343-.4664-.0953-.6155-.1383-1.0023-.7494-.864-1.365.0272-.121.074-.2367.1384-.3428.1706-.2806.6751-.5401.823-.5943 10.5165-3.8539 20.1236-11.3753 24.41-15.474 2.8986-2.772 6.8283-6.431 10.637-12.0459 1.3925-2.0529 3.57-5.9323 6.5328-11.6383.2914-.5611.9824-.7798 1.5436-.4885.0166.0086.033.0177.049.027.5864.342.8075 1.0796.506 1.6876zm-6.6062-7.0357c-1.6693 3.3667-2.8958 5.721-3.6797 7.0629-4.3897 7.5145-8.9455 13.2328-13.316 17.2677-5.7934 5.3485-14.2188 10.5892-25.2762 15.7223a2.3343 2.3343 0 0 1-.3989.1427c-.3613.0934-.5742.138-.6387.1338-.0394-.0025-.1949-.0343-.4664-.0953-.6155-.1383-1.0023-.7494-.864-1.3649.0272-.121.074-.2368.1384-.3428.1706-.2806.6752-.5402.823-.5943 10.5165-3.8539 20.1236-11.3753 24.41-15.4741 2.8986-2.7719 6.8284-6.431 10.637-12.0458 1.3925-2.053 3.5701-5.9323 6.5328-11.6384.2914-.561.9825-.7798 1.5436-.4884.0166.0086.033.0176.0491.027.5863.3419.8075 1.0795.506 1.6876zm-4.5418-7.0358c-1.6693 3.3667-2.8958 5.721-3.6797 7.063-4.3897 7.5145-8.9455 13.2328-13.316 17.2677-5.7934 5.3484-14.2188 10.5892-25.2762 15.7222a2.3343 2.3343 0 0 1-.399.1428c-.3612.0933-.574.138-.6386.1338-.0394-.0026-.1949-.0343-.4664-.0953-.6155-.1384-1.0023-.7494-.864-1.365.0272-.121.074-.2368.1384-.3428.1706-.2806.6751-.5401.823-.5943 10.5165-3.8539 20.1236-11.3753 24.41-15.474 2.8986-2.772 6.8284-6.431 10.637-12.0459 1.3925-2.0529 3.57-5.9323 6.5328-11.6383.2914-.5611.9824-.7798 1.5436-.4885.0166.0086.033.0177.0491.027.5863.342.8075 1.0796.506 1.6876zm-9.0837-4.9664c-1.6692 3.3667-2.8958 5.721-3.6797 7.063-4.3897 7.5145-8.9454 13.2328-13.316 17.2677-5.7933 5.3484-14.2187 10.5892-25.2762 15.7222a2.3343 2.3343 0 0 1-.3988.1428c-.3613.0933-.5742.138-.6387.1338-.0395-.0026-.195-.0343-.4664-.0954-.6155-.1383-1.0023-.7493-.864-1.3648.0272-.121.074-.2369.1384-.3429.1706-.2806.6751-.5401.823-.5943 10.5165-3.8539 20.1236-11.3753 24.41-15.4741 2.8986-2.7719 6.8283-6.431 10.637-12.0458 1.3925-2.0529 3.57-5.9323 6.5328-11.6383.2914-.5611.9824-.7798 1.5436-.4885.0165.0086.033.0176.049.027.5864.342.8075 1.0796.506 1.6876zm-4.5418-7.0357c-1.6692 3.3667-2.8958 5.721-3.6797 7.0629-4.3897 7.5145-8.9454 13.2328-13.316 17.2677-5.7933 5.3485-14.2187 10.5892-25.2762 15.7222a2.3343 2.3343 0 0 1-.3989.1428c-.3612.0934-.5741.138-.6386.1338-.0395-.0025-.195-.0343-.4664-.0953-.6155-.1383-1.0023-.7494-.864-1.3649.0272-.121.074-.2368.1384-.3428.1705-.2806.6751-.5402.823-.5944 10.5165-3.8538 20.1236-11.3752 24.4099-15.474 2.8987-2.772 6.8284-6.431 10.637-12.0459 1.3925-2.0528 3.5702-5.9323 6.5329-11.6383.2913-.5611.9824-.7798 1.5435-.4884.0166.0086.033.0176.0492.027.5863.3419.8074 1.0795.506 1.6876z" fill-opacity=".5" fill="#FFF"/>
    <path d="M579.5194 195.091c-27.8201 0-50.3728-22.606-50.3728-50.4919s22.5527-50.4918 50.3728-50.4918c27.8202 0 50.3728 22.606 50.3728 50.4918 0 27.886-22.5526 50.492-50.3728 50.492zm-111.068 156.0282c13.7801-4.7685 23.6895-8.9072 29.7283-12.416 10.9886-6.385 21.9511-12.7618 28.072-25.6599 1.2446-2.6227 5.3722-12.1031 5.3722-19.8656 0-21.935 1.6516-50.4919 3.3032-60.4247 2.4133-14.514 7.7809-29.9652 16.1028-46.3532l7.0191 4.1387c-4.0347 7.9646-6.7873 13.8967-8.2578 17.7963-4.6411 12.3075-7.0257 23.4697-7.845 30.2123-3.5276 29.0322 1.6516 54.6306-6.6062 74.4962-2.6413 6.354-6.7147 12.0637-10.7352 16.5548-9.514 10.6274-27.5436 20.2843-54.0889 28.9707l-2.0644-7.4496z" fill="#D8D1FA"/>
    <path d="M563.09 162.303c-4.7033-4.3483-7.6492-10.5778-7.6492-17.497 0-13.1429 10.6293-23.7973 23.7413-23.7973 2.4637 0 4.8398.3761 7.0742 1.0743l1.647-2.8596-1.2181-.705c-2.3627-1.3673-3.1725-4.3894-1.81-6.7549l12.4002-21.5286c1.3645-2.3689 4.391-3.1832 6.76-1.8187a5.098 5.098 0 0 1 .0088.005l12.5283 7.2504c2.3627 1.3673 3.1725 4.3894 1.81 6.755l-12.4002 21.5285c-1.3645 2.369-4.391 3.1832-6.76 1.8187a5.3928 5.3928 0 0 1-.0088-.005l-2.7283-1.579-1.5961 2.771c4.927 4.3605 8.0342 10.7392 8.0342 17.8453 0 13.143-10.6293 23.7974-23.7412 23.7974-2.646 0-5.1908-.4339-7.5677-1.2345l-3.9006 6.7721.0932.054c1.1814.6837 1.5863 2.1947.905 3.3775l-8.2645 14.3485c-.6823 1.1844-2.1956 1.5916-3.38.9093a2.3719 2.3719 0 0 1-.0044-.0025l-8.2308-4.7633c-1.1814-.6837-1.5863-2.1947-.905-3.3775l8.2646-14.3484c.5953-1.0336 1.8233-1.4752 2.9135-1.1178l3.9846-6.918z" fill="#A396E7"/>
    <path d="M464.2284 351.082l3.127-1.0792c.8614-.2973 1.8007.16 2.098 1.0214a.9584.9584 0 0 1 .0008.0023l2.5573 7.4446c.2958.861-.1616 1.7988-1.0222 2.0958l-3.1269 1.0792c-.8614.2973-1.8007-.16-2.098-1.0214l-.0008-.0023-2.5573-7.4446c-.2958-.861.1616-1.7988 1.0221-2.0958z" fill="#7668BC"/>
    <path d="M430.596 359.2656l29.291-10.1095c2.5842-.892 5.4021.48 6.294 3.0641l.0024.0068 2.8328 8.2465c.8872 2.5828-.485 5.3963-3.0665 6.2873l-29.291 10.1095c-2.5843.892-5.4022-.48-6.2942-3.0642a4.314 4.314 0 0 1-.0023-.0068l-2.8328-8.2464c-.8872-2.5828.485-5.3963 3.0665-6.2873z" fill="#A396E7"/>
    <ellipse fill="#7668BC" cx="579.313" cy="144.8061" rx="13.419" ry="13.4507"/>
    <path d="M436.8913 368.0357l5.861-2.0229c1.1845-.4088 2.476.22 2.8849 1.4044l.001.0031.0046.0132c.4066 1.1838-.2223 2.4733-1.4055 2.8817l-5.8611 2.0229c-1.1845.4088-2.476-.22-2.8848-1.4044a1.6352 1.6352 0 0 1-.0011-.0032l-.0045-.0131c-.4067-1.1838.2222-2.4733 1.4055-2.8817zm-2.22-7.1166l5.8612-2.0229c1.1844-.4088 2.476.22 2.8848 1.4044l.001.0031.0046.0132c.4066 1.1838-.2223 2.4733-1.4055 2.8817l-5.8611 2.0229c-1.1845.4088-2.476-.22-2.8848-1.4044a3.831 3.831 0 0 1-.0011-.0032l-.0045-.0131c-.4067-1.1838.2222-2.4733 1.4055-2.8817z" fill="#7668BC"/>
  </g>
</svg>
