<?xml version="1.0" encoding="UTF-8"?>
<svg width="474px" height="382px" viewBox="0 0 474 382" version="1.1" xmlns="http://www.w3.org/2000/svg" xmlns:xlink="http://www.w3.org/1999/xlink">
    <!-- Generator: Sketch 54.1 (76490) - https://sketchapp.com -->
    <title>turntable</title>
    <desc>Created with Sketch.</desc>
    <g id="turntable" stroke="none" stroke-width="1" fill="none" fill-rule="evenodd">
        <g id="lp-copy-2">
            <ellipse id="Oval" fill="#241769" cx="190.549652" cy="191" rx="190.549652" ry="191"></ellipse>
            <ellipse id="Oval" fill="#D8D1FA" cx="190.549652" cy="191" rx="65.8562718" ry="66.0119177"></ellipse>
            <g id="Group" transform="translate(24.252253, 18.020535)" fill="#FFFFFF" fill-opacity="0.5">
                <path d="M-10.5131543,50.8727896 C-3.11911408,48.6781337 2.12875938,47.2226481 5.23046612,46.5063331 C22.4123851,42.5383024 37.241697,41.0608511 49.374195,41.4850731 C65.4633423,42.0476423 85.1998555,46.0896136 108.583735,53.6109872 L108.583737,53.6109795 C108.833886,53.6914392 109.076916,53.7925443 109.310321,53.9132515 C109.981965,54.2605974 110.361908,54.4783916 110.45015,54.5666339 C110.45015,54.5666339 110.45015,54.5666339 110.45015,54.5666339 L110.45015,54.5666339 C111.348315,55.4647995 111.348315,56.9210135 110.45015,57.819179 C110.266197,58.0031318 110.052368,58.1545417 109.817765,58.2669634 C109.698737,58.3239776 109.615737,58.3575354 109.568754,58.3676175 C108.917524,58.5073644 107.814584,58.1965511 107.522972,58.0777288 C86.7794126,49.6254163 62.0557286,46.9820693 49.9525923,46.7458502 C41.7677318,46.5861048 30.8139051,46.2442257 17.2125041,48.5383138 C12.2077822,49.3824381 3.38516858,51.5657468 -9.25533677,55.0882399 L-9.25533846,55.0882338 C-10.4210594,55.4130819 -11.6323432,54.7451675 -11.9797448,53.5859678 L-11.9797448,53.5859678 C-12.3250611,52.4337267 -11.6709192,51.2197166 -10.518678,50.8744003 C-10.5168409,50.8738497 -10.5150029,50.8733016 -10.5131643,50.8727558 Z" id="Rectangle" transform="translate(49.525890, 49.908967) rotate(-45.000000) translate(-49.525890, -49.908967) "></path>
                <path d="M6.38262792,56.3565358 C12.3703655,54.5992889 16.6194679,53.4340616 19.129935,52.8608538 C33.0241371,49.6884303 45.0159187,48.5071227 54.8269288,48.8461345 C67.8379039,49.2957187 83.7985586,52.5270373 102.708893,58.5400903 L102.70889,58.5400988 C102.910043,58.6040608 103.105584,58.684489 103.293527,58.7805671 C103.837398,59.0585981 104.145038,59.2329115 104.216449,59.3035071 C104.216449,59.3035071 104.216449,59.3035071 104.216449,59.3035071 L104.216449,59.3035071 C104.934934,60.0137935 104.941581,61.1720418 104.231295,61.8905271 C104.083313,62.0402167 103.910608,62.1632439 103.720782,62.2541922 C103.616124,62.304393 103.543771,62.3337159 103.503745,62.3422079 C102.977126,62.4539355 102.085225,62.2054681 101.84941,62.110479 C85.0749346,55.3535145 65.0819744,53.240563 55.2947099,53.0518495 C48.6759795,52.9242302 39.8181087,52.6510344 28.8192924,54.4851878 C24.770059,55.1604346 17.6302033,56.9074694 7.3997251,59.7262922 L7.39973122,59.7263144 C6.46449807,59.9840009 5.49432765,59.4492069 5.21288834,58.5208453 L5.21288834,58.5208453 C4.93538357,57.6054623 5.45248609,56.6384356 6.36786914,56.3609308 C6.3727815,56.3594416 6.37770045,56.3579743 6.38262586,56.3565288 Z" id="Rectangle-Copy-2" transform="translate(54.948816, 55.580302) rotate(-45.000000) translate(-54.948816, -55.580302) "></path>
                <path d="M16.7883339,63.0925054 C22.1733867,61.4970816 25.9952964,60.4390297 28.2540628,59.9183497 C40.7646422,57.0344705 51.5622334,55.9606773 60.3962099,56.2689704 C72.111122,56.6778039 86.4817783,59.6153621 103.508179,65.0816448 L103.50818,65.081642 C103.690335,65.1401225 103.867323,65.2136177 104.037323,65.3013711 C104.526303,65.5537818 104.802917,65.712051 104.867164,65.7761786 C104.867164,65.7761786 104.867164,65.7761786 104.867164,65.7761786 L104.867164,65.7761786 C105.519978,66.4277765 105.520964,67.4852115 104.869366,68.1380258 C104.735577,68.272065 104.579964,68.3823717 104.409184,68.4642271 C104.321206,68.506442 104.25994,68.5312291 104.225403,68.5386266 C103.751227,68.6401917 102.948148,68.4143032 102.735818,68.3279471 C87.6318991,62.1850802 69.629961,60.2640104 60.8173639,60.0923525 C54.8577615,59.9762671 46.8820053,59.7278166 36.9784881,61.3951162 C33.3341068,62.0086634 26.9093379,63.5956684 17.7041815,66.1561311 L17.7041743,66.1561051 C16.8564885,66.3918933 15.9759108,65.9063562 15.7228882,65.0636541 L15.7228882,65.0636541 C15.4717149,64.2271107 15.946251,63.3453421 16.7827943,63.0941687 C16.7846408,63.0936143 16.7864884,63.0930632 16.7883369,63.0925156 Z" id="Rectangle-Copy-3" transform="translate(60.506545, 62.391172) rotate(-45.000000) translate(-60.506545, -62.391172) "></path>
                <path d="M27.1447874,67.4387084 C32.0732463,66.1907025 35.564158,65.3645991 37.6175226,64.9603984 C48.8593014,62.7474764 58.5620407,61.9225535 66.5004564,62.1575357 C77.0333667,62.4693165 89.9557185,64.7214418 105.267512,68.9139118 L105.267508,68.9139259 C105.414365,68.9541362 105.558073,69.0050691 105.697474,69.0663142 C106.150047,69.2651485 106.405663,69.389533 106.464323,69.4394675 C106.464323,69.4394675 106.464323,69.4394675 106.464323,69.4394675 L106.464323,69.4394675 C106.968758,69.8688686 107.029585,70.6258923 106.600184,71.1303272 C106.482692,71.2683499 106.335447,71.3779498 106.169512,71.4508915 C106.026348,71.5137771 105.932535,71.5493076 105.888056,71.5574437 C105.461969,71.6353842 104.740273,71.4623281 104.549456,71.3961548 C90.97585,66.688977 74.7986907,65.2189609 66.8795082,65.088729 C61.5240861,65.0006584 54.3568917,64.8114219 45.4576756,66.091227 C42.160321,66.5654229 36.3300956,67.7966862 27.9669994,69.7850169 L27.9670062,69.7850455 C27.2849274,69.9472101 26.5904621,69.5683681 26.3575887,68.9070824 L26.3575887,68.9070824 C26.1506269,68.3193774 26.4592803,67.6751726 27.0469854,67.4682108 C27.0791207,67.4568943 27.1117521,67.4470392 27.1447792,67.438676 Z" id="Rectangle-Copy-4" transform="translate(66.589773, 66.848062) rotate(-45.000000) translate(-66.589773, -66.848062) "></path>
                <path d="M23.3111993,77.0499269 C29.2989369,75.29268 33.5480393,74.1274527 36.0585065,73.5542449 C49.9527085,70.3818214 61.9444901,69.2005138 71.7555002,69.5395256 C84.7664753,69.9891098 100.72713,73.2204284 119.637464,79.2334814 L119.637462,79.2334899 C119.838615,79.2974519 120.034155,79.3778801 120.222098,79.4739582 C120.765969,79.7519892 121.07361,79.9263026 121.14502,79.9968982 C121.14502,79.9968982 121.14502,79.9968982 121.14502,79.9968982 L121.14502,79.9968982 C121.863506,80.7071846 121.870152,81.8654329 121.159866,82.5839182 C121.011885,82.7336078 120.839179,82.856635 120.649353,82.9475833 C120.544696,82.9977841 120.472343,83.027107 120.432316,83.035599 C119.905698,83.1473266 119.013797,82.8988593 118.777982,82.8038702 C102.003506,76.0469056 82.0105458,73.9339541 72.2232813,73.7452406 C65.6045509,73.6176213 56.7466802,73.3444255 45.7478638,75.1785789 C41.6986305,75.8538257 34.5587747,77.6008605 24.3282965,80.4196833 L24.3283027,80.4197055 C23.3930695,80.6773921 22.4228991,80.1425981 22.1414598,79.2142364 L22.1414598,79.2142364 C21.863955,78.2988534 22.3810575,77.3318267 23.2964406,77.054322 C23.3013529,77.0528327 23.3062719,77.0513654 23.3111973,77.0499199 Z" id="Rectangle-Copy-7" transform="translate(71.877388, 76.273693) rotate(-45.000000) translate(-71.877388, -76.273693) "></path>
                <path d="M33.7169053,83.7858965 C39.1019582,82.1904728 42.9238678,81.1324208 45.1826342,80.6117408 C57.6932136,77.7278616 68.4908048,76.6540684 77.3247813,76.9623615 C89.0396934,77.3711951 103.41035,80.3087532 120.43675,85.7750359 L120.436751,85.7750331 C120.618906,85.8335136 120.795895,85.9070088 120.965894,85.9947622 C121.454874,86.247173 121.731488,86.4054421 121.795735,86.4695698 C121.795735,86.4695698 121.795735,86.4695698 121.795735,86.4695698 L121.795735,86.4695698 C122.44855,87.1211676 122.449536,88.1786027 121.797938,88.8314169 C121.664148,88.9654561 121.508535,89.0757629 121.337755,89.1576183 C121.249778,89.1998331 121.188511,89.2246202 121.153975,89.2320178 C120.679798,89.3335829 119.87672,89.1076943 119.66439,89.0213382 C104.560471,82.8784713 86.5585324,80.9574015 77.7459353,80.7857436 C71.786333,80.6696583 63.8105767,80.4212077 53.9070595,82.0885073 C50.2626782,82.7020546 43.8379094,84.2890595 34.6327529,86.8495222 L34.6327457,86.8494962 C33.7850599,87.0852844 32.9044822,86.5997473 32.6514597,85.7570452 L32.6514597,85.7570452 C32.4002863,84.9205018 32.8748224,84.0387332 33.7113657,83.7875598 C33.7132123,83.7870054 33.7150598,83.7864543 33.7169084,83.7859067 Z" id="Rectangle-Copy-6" transform="translate(77.435116, 83.084563) rotate(-45.000000) translate(-77.435116, -83.084563) "></path>
                <path d="M45.3702693,89.1617232 C50.1420323,87.5905018 53.5338385,86.546991 55.545688,86.0311908 C66.788257,83.1488083 76.4912885,82.076307 84.4296164,82.3856572 C94.9530771,82.795748 107.86105,85.7330973 123.153534,91.1977052 L123.153534,91.1977055 C123.328404,91.2601934 123.49733,91.3382062 123.658292,91.4308104 C124.089514,91.6789003 124.3337,91.834693 124.39085,91.8981884 C124.424596,91.9356803 124.535295,92.0989412 124.722948,92.3879709 L124.72296,92.387963 C125.173405,93.0817542 124.976134,94.009341 124.282343,94.4597862 C124.138789,94.5529893 123.980321,94.6208971 123.813823,94.66056 C123.813823,94.66056 123.813823,94.66056 123.813823,94.66056 C123.387708,94.7620683 122.666074,94.5360837 122.475281,94.4497021 C108.903372,88.305027 92.7267475,86.3818028 84.8076151,86.2090903 C79.4522269,86.0922918 72.2851035,85.8428868 63.3854314,87.5090016 C60.1275641,88.1189095 54.3971161,89.6918008 46.1940874,92.2276755 L46.1940927,92.2276927 C45.3948926,92.4747565 44.5467281,92.0271616 44.2996643,91.2279615 C44.2942357,91.2104009 44.2891271,91.1927429 44.2843412,91.1749964 L44.2843412,91.1749964 C44.0543073,90.322014 44.5311207,89.4379916 45.3702568,89.1616853 Z" id="Rectangle-Copy-5" transform="translate(84.595648, 88.510287) rotate(-45.000000) translate(-84.595648, -88.510287) "></path>
                <path d="M63.1680961,94.0621512 C66.7290428,92.8618592 69.2610995,92.0644247 70.7642661,91.6698479 C79.1818402,89.4602594 86.4466965,88.638214 92.3902583,88.8755506 C100.2687,89.1901504 109.93212,91.4420446 121.380517,95.6312333 L121.380517,95.6312333 C121.513408,95.6798608 121.641603,95.7404718 121.763517,95.8123176 C122.084982,96.0017628 122.26706,96.1207696 122.309749,96.169338 C122.335826,96.1990066 122.423281,96.3313986 122.572113,96.566514 L122.572117,96.5665116 C122.909527,97.0995283 122.750957,97.8051486 122.21794,98.1425585 C122.113118,98.2089131 121.998185,98.2577479 121.877659,98.2871441 C121.877659,98.2871441 121.877659,98.2871441 121.877659,98.2871441 C121.558617,98.3649581 121.018322,98.191688 120.875474,98.125458 C110.714072,93.4142528 98.6023844,91.9394381 92.6731917,91.8068574 C88.663519,91.7171984 83.2973706,91.5258361 76.6339913,92.8030023 C74.1977514,93.269955 69.9147716,94.4733298 63.785052,96.4131266 L63.7850497,96.4131194 C63.1822539,96.6038787 62.5389503,96.2698572 62.3481909,95.6670614 C62.3425498,95.6492356 62.3373463,95.6312744 62.332585,95.6131937 L62.332585,95.6131937 C62.1597552,94.9568912 62.5249616,94.2789026 63.1680868,94.0621237 Z" id="Rectangle-Copy-8" transform="translate(92.519590, 93.571486) rotate(-45.000000) translate(-92.519590, -93.571486) "></path>
                <path d="M69.7743679,101.097904 C73.3353146,99.8976121 75.8673713,99.1001777 77.3705379,98.7056009 C85.7881119,96.4960124 93.0529683,95.673967 98.9965301,95.9113036 C106.874972,96.2259034 116.538392,98.4777976 127.986789,102.666986 L127.986789,102.666986 C128.11968,102.715614 128.247875,102.776225 128.369788,102.848071 C128.691254,103.037516 128.873332,103.156523 128.916021,103.205091 C128.942098,103.23476 129.029553,103.367152 129.178385,103.602267 L129.178389,103.602265 C129.515799,104.135281 129.357228,104.840902 128.824212,105.178312 C128.719389,105.244666 128.604457,105.293501 128.483931,105.322897 C128.483931,105.322897 128.483931,105.322897 128.483931,105.322897 C128.164889,105.400711 127.624594,105.227441 127.481745,105.161211 C117.320344,100.450006 105.208656,98.9751911 99.2794635,98.8426104 C95.2697908,98.7529514 89.9036423,98.5615891 83.240263,99.8387552 C80.8040232,100.305708 76.5210434,101.509083 70.3913238,103.44888 L70.3913215,103.448872 C69.7885257,103.639632 69.1452221,103.30561 68.9544627,102.702814 C68.9488216,102.684989 68.9436181,102.667027 68.9388567,102.648947 L68.9388567,102.648947 C68.766027,101.992644 69.1312334,101.314656 69.7743586,101.097877 Z" id="Rectangle-Copy-9" transform="translate(99.125862, 100.607239) rotate(-45.000000) translate(-99.125862, -100.607239) "></path>
                <path d="M74.3161797,108.133657 C77.8771264,106.933365 80.4091831,106.135931 81.9123498,105.741354 C90.3299238,103.531765 97.5947801,102.70972 103.538342,102.947057 C111.416784,103.261656 121.080204,105.513551 132.528601,109.702739 L132.528601,109.702739 C132.661492,109.751367 132.789686,109.811978 132.9116,109.883824 C133.233066,110.073269 133.415144,110.192276 133.457833,110.240844 C133.48391,110.270513 133.571364,110.402905 133.720197,110.63802 L133.720201,110.638018 C134.057611,111.171034 133.89904,111.876655 133.366023,112.214065 C133.261201,112.280419 133.146269,112.329254 133.025743,112.35865 C133.025743,112.35865 133.025743,112.35865 133.025743,112.35865 C132.706701,112.436464 132.166406,112.263194 132.023557,112.196964 C121.862156,107.485759 109.750468,106.010944 103.821275,105.878363 C99.8116026,105.788704 94.4454542,105.597342 87.7820749,106.874508 C85.345835,107.341461 81.0628553,108.544836 74.9331356,110.484633 L74.9331333,110.484625 C74.3303375,110.675385 73.6870339,110.341363 73.4962746,109.738567 C73.4906335,109.720742 73.4854299,109.70278 73.4806686,109.6847 L73.4806686,109.6847 C73.3078388,109.028397 73.6730453,108.350409 74.3161705,108.13363 Z" id="Rectangle-Copy-10" transform="translate(103.667674, 107.642992) rotate(-45.000000) translate(-103.667674, -107.642992) "></path>
                <path d="M83.3998034,113.100071 C86.9607501,111.899779 89.4928068,111.102345 90.9959734,110.707768 C99.4135475,108.498179 106.678404,107.676134 112.621966,107.91347 C120.500408,108.22807 130.163827,110.479964 141.612224,114.669153 L141.612224,114.669153 C141.745116,114.717781 141.87331,114.778392 141.995224,114.850237 C142.31669,115.039683 142.498767,115.158689 142.541456,115.207258 C142.567533,115.236926 142.654988,115.369318 142.803821,115.604434 L142.803825,115.604431 C143.141235,116.137448 142.982664,116.843068 142.449647,117.180478 C142.344825,117.246833 142.229893,117.295668 142.109367,117.325064 C142.109367,117.325064 142.109367,117.325064 142.109367,117.325064 C141.790325,117.402878 141.250029,117.229608 141.107181,117.163378 C130.94578,112.452173 118.834092,110.977358 112.904899,110.844777 C108.895226,110.755118 103.529078,110.563756 96.8656986,111.840922 C94.4294587,112.307875 90.146479,113.51125 84.0167593,115.451046 L84.016757,115.451039 C83.4139612,115.641799 82.7706576,115.307777 82.5798983,114.704981 C82.5742572,114.687155 82.5690536,114.669194 82.5642923,114.651114 L82.5642923,114.651114 C82.3914625,113.994811 82.756669,113.316822 83.3997941,113.100044 Z" id="Rectangle-Copy-12" transform="translate(112.751298, 112.609406) rotate(-45.000000) translate(-112.751298, -112.609406) "></path>
                <path d="M87.9416153,120.135824 C91.502562,118.935532 94.0346187,118.138098 95.5377853,117.743521 C103.955359,115.533932 111.220216,114.711887 117.163777,114.949223 C125.04222,115.263823 134.705639,117.515717 146.154036,121.704906 L146.154036,121.704906 C146.286928,121.753534 146.415122,121.814145 146.537036,121.88599 C146.858502,122.075436 147.040579,122.194442 147.083268,122.243011 C147.109345,122.272679 147.1968,122.405071 147.345633,122.640187 L147.345637,122.640184 C147.683047,123.173201 147.524476,123.878821 146.991459,124.216231 C146.886637,124.282586 146.771705,124.331421 146.651179,124.360817 C146.651179,124.360817 146.651179,124.360817 146.651179,124.360817 C146.332136,124.438631 145.791841,124.265361 145.648993,124.199131 C135.487591,119.487926 123.375904,118.013111 117.446711,117.88053 C113.437038,117.790871 108.07089,117.599509 101.40751,118.876675 C98.9712706,119.343628 94.6882908,120.547003 88.5585712,122.486799 L88.5585689,122.486792 C87.955773,122.677552 87.3124695,122.34353 87.1217101,121.740734 C87.116069,121.722908 87.1108655,121.704947 87.1061041,121.686867 L87.1061041,121.686867 C86.9332744,121.030564 87.2984808,120.352575 87.941606,120.135797 Z" id="Rectangle-Copy-11" transform="translate(117.293109, 119.645159) rotate(-45.000000) translate(-117.293109, -119.645159) "></path>
            </g>
            <g id="Group-Copy" transform="translate(287.372822, 290.328277) scale(-1, -1) translate(-287.372822, -290.328277) translate(216.355401, 218.108342)" fill="#FFFFFF" fill-opacity="0.5">
                <path d="M-10.5131543,50.8727896 C-3.11911408,48.6781337 2.12875938,47.2226481 5.23046612,46.5063331 C22.4123851,42.5383024 37.241697,41.0608511 49.374195,41.4850731 C65.4633423,42.0476423 85.1998555,46.0896136 108.583735,53.6109872 L108.583737,53.6109795 C108.833886,53.6914392 109.076916,53.7925443 109.310321,53.9132515 C109.981965,54.2605974 110.361908,54.4783916 110.45015,54.5666339 C110.45015,54.5666339 110.45015,54.5666339 110.45015,54.5666339 L110.45015,54.5666339 C111.348315,55.4647995 111.348315,56.9210135 110.45015,57.819179 C110.266197,58.0031318 110.052368,58.1545417 109.817765,58.2669634 C109.698737,58.3239776 109.615737,58.3575354 109.568754,58.3676175 C108.917524,58.5073644 107.814584,58.1965511 107.522972,58.0777288 C86.7794126,49.6254163 62.0557286,46.9820693 49.9525923,46.7458502 C41.7677318,46.5861048 30.8139051,46.2442257 17.2125041,48.5383138 C12.2077822,49.3824381 3.38516858,51.5657468 -9.25533677,55.0882399 L-9.25533846,55.0882338 C-10.4210594,55.4130819 -11.6323432,54.7451675 -11.9797448,53.5859678 L-11.9797448,53.5859678 C-12.3250611,52.4337267 -11.6709192,51.2197166 -10.518678,50.8744003 C-10.5168409,50.8738497 -10.5150029,50.8733016 -10.5131643,50.8727558 Z" id="Rectangle" transform="translate(49.525890, 49.908967) rotate(-45.000000) translate(-49.525890, -49.908967) "></path>
                <path d="M6.38262792,56.3565358 C12.3703655,54.5992889 16.6194679,53.4340616 19.129935,52.8608538 C33.0241371,49.6884303 45.0159187,48.5071227 54.8269288,48.8461345 C67.8379039,49.2957187 83.7985586,52.5270373 102.708893,58.5400903 L102.70889,58.5400988 C102.910043,58.6040608 103.105584,58.684489 103.293527,58.7805671 C103.837398,59.0585981 104.145038,59.2329115 104.216449,59.3035071 C104.216449,59.3035071 104.216449,59.3035071 104.216449,59.3035071 L104.216449,59.3035071 C104.934934,60.0137935 104.941581,61.1720418 104.231295,61.8905271 C104.083313,62.0402167 103.910608,62.1632439 103.720782,62.2541922 C103.616124,62.304393 103.543771,62.3337159 103.503745,62.3422079 C102.977126,62.4539355 102.085225,62.2054681 101.84941,62.110479 C85.0749346,55.3535145 65.0819744,53.240563 55.2947099,53.0518495 C48.6759795,52.9242302 39.8181087,52.6510344 28.8192924,54.4851878 C24.770059,55.1604346 17.6302033,56.9074694 7.3997251,59.7262922 L7.39973122,59.7263144 C6.46449807,59.9840009 5.49432765,59.4492069 5.21288834,58.5208453 L5.21288834,58.5208453 C4.93538357,57.6054623 5.45248609,56.6384356 6.36786914,56.3609308 C6.3727815,56.3594416 6.37770045,56.3579743 6.38262586,56.3565288 Z" id="Rectangle-Copy-2" transform="translate(54.948816, 55.580302) rotate(-45.000000) translate(-54.948816, -55.580302) "></path>
                <path d="M16.7883339,63.0925054 C22.1733867,61.4970816 25.9952964,60.4390297 28.2540628,59.9183497 C40.7646422,57.0344705 51.5622334,55.9606773 60.3962099,56.2689704 C72.111122,56.6778039 86.4817783,59.6153621 103.508179,65.0816448 L103.50818,65.081642 C103.690335,65.1401225 103.867323,65.2136177 104.037323,65.3013711 C104.526303,65.5537818 104.802917,65.712051 104.867164,65.7761786 C104.867164,65.7761786 104.867164,65.7761786 104.867164,65.7761786 L104.867164,65.7761786 C105.519978,66.4277765 105.520964,67.4852115 104.869366,68.1380258 C104.735577,68.272065 104.579964,68.3823717 104.409184,68.4642271 C104.321206,68.506442 104.25994,68.5312291 104.225403,68.5386266 C103.751227,68.6401917 102.948148,68.4143032 102.735818,68.3279471 C87.6318991,62.1850802 69.629961,60.2640104 60.8173639,60.0923525 C54.8577615,59.9762671 46.8820053,59.7278166 36.9784881,61.3951162 C33.3341068,62.0086634 26.9093379,63.5956684 17.7041815,66.1561311 L17.7041743,66.1561051 C16.8564885,66.3918933 15.9759108,65.9063562 15.7228882,65.0636541 L15.7228882,65.0636541 C15.4717149,64.2271107 15.946251,63.3453421 16.7827943,63.0941687 C16.7846408,63.0936143 16.7864884,63.0930632 16.7883369,63.0925156 Z" id="Rectangle-Copy-3" transform="translate(60.506545, 62.391172) rotate(-45.000000) translate(-60.506545, -62.391172) "></path>
                <path d="M27.1447874,67.4387084 C32.0732463,66.1907025 35.564158,65.3645991 37.6175226,64.9603984 C48.8593014,62.7474764 58.5620407,61.9225535 66.5004564,62.1575357 C77.0333667,62.4693165 89.9557185,64.7214418 105.267512,68.9139118 L105.267508,68.9139259 C105.414365,68.9541362 105.558073,69.0050691 105.697474,69.0663142 C106.150047,69.2651485 106.405663,69.389533 106.464323,69.4394675 C106.464323,69.4394675 106.464323,69.4394675 106.464323,69.4394675 L106.464323,69.4394675 C106.968758,69.8688686 107.029585,70.6258923 106.600184,71.1303272 C106.482692,71.2683499 106.335447,71.3779498 106.169512,71.4508915 C106.026348,71.5137771 105.932535,71.5493076 105.888056,71.5574437 C105.461969,71.6353842 104.740273,71.4623281 104.549456,71.3961548 C90.97585,66.688977 74.7986907,65.2189609 66.8795082,65.088729 C61.5240861,65.0006584 54.3568917,64.8114219 45.4576756,66.091227 C42.160321,66.5654229 36.3300956,67.7966862 27.9669994,69.7850169 L27.9670062,69.7850455 C27.2849274,69.9472101 26.5904621,69.5683681 26.3575887,68.9070824 L26.3575887,68.9070824 C26.1506269,68.3193774 26.4592803,67.6751726 27.0469854,67.4682108 C27.0791207,67.4568943 27.1117521,67.4470392 27.1447792,67.438676 Z" id="Rectangle-Copy-4" transform="translate(66.589773, 66.848062) rotate(-45.000000) translate(-66.589773, -66.848062) "></path>
                <path d="M23.3111993,77.0499269 C29.2989369,75.29268 33.5480393,74.1274527 36.0585065,73.5542449 C49.9527085,70.3818214 61.9444901,69.2005138 71.7555002,69.5395256 C84.7664753,69.9891098 100.72713,73.2204284 119.637464,79.2334814 L119.637462,79.2334899 C119.838615,79.2974519 120.034155,79.3778801 120.222098,79.4739582 C120.765969,79.7519892 121.07361,79.9263026 121.14502,79.9968982 C121.14502,79.9968982 121.14502,79.9968982 121.14502,79.9968982 L121.14502,79.9968982 C121.863506,80.7071846 121.870152,81.8654329 121.159866,82.5839182 C121.011885,82.7336078 120.839179,82.856635 120.649353,82.9475833 C120.544696,82.9977841 120.472343,83.027107 120.432316,83.035599 C119.905698,83.1473266 119.013797,82.8988593 118.777982,82.8038702 C102.003506,76.0469056 82.0105458,73.9339541 72.2232813,73.7452406 C65.6045509,73.6176213 56.7466802,73.3444255 45.7478638,75.1785789 C41.6986305,75.8538257 34.5587747,77.6008605 24.3282965,80.4196833 L24.3283027,80.4197055 C23.3930695,80.6773921 22.4228991,80.1425981 22.1414598,79.2142364 L22.1414598,79.2142364 C21.863955,78.2988534 22.3810575,77.3318267 23.2964406,77.054322 C23.3013529,77.0528327 23.3062719,77.0513654 23.3111973,77.0499199 Z" id="Rectangle-Copy-7" transform="translate(71.877388, 76.273693) rotate(-45.000000) translate(-71.877388, -76.273693) "></path>
                <path d="M33.7169053,83.7858965 C39.1019582,82.1904728 42.9238678,81.1324208 45.1826342,80.6117408 C57.6932136,77.7278616 68.4908048,76.6540684 77.3247813,76.9623615 C89.0396934,77.3711951 103.41035,80.3087532 120.43675,85.7750359 L120.436751,85.7750331 C120.618906,85.8335136 120.795895,85.9070088 120.965894,85.9947622 C121.454874,86.247173 121.731488,86.4054421 121.795735,86.4695698 C121.795735,86.4695698 121.795735,86.4695698 121.795735,86.4695698 L121.795735,86.4695698 C122.44855,87.1211676 122.449536,88.1786027 121.797938,88.8314169 C121.664148,88.9654561 121.508535,89.0757629 121.337755,89.1576183 C121.249778,89.1998331 121.188511,89.2246202 121.153975,89.2320178 C120.679798,89.3335829 119.87672,89.1076943 119.66439,89.0213382 C104.560471,82.8784713 86.5585324,80.9574015 77.7459353,80.7857436 C71.786333,80.6696583 63.8105767,80.4212077 53.9070595,82.0885073 C50.2626782,82.7020546 43.8379094,84.2890595 34.6327529,86.8495222 L34.6327457,86.8494962 C33.7850599,87.0852844 32.9044822,86.5997473 32.6514597,85.7570452 L32.6514597,85.7570452 C32.4002863,84.9205018 32.8748224,84.0387332 33.7113657,83.7875598 C33.7132123,83.7870054 33.7150598,83.7864543 33.7169084,83.7859067 Z" id="Rectangle-Copy-6" transform="translate(77.435116, 83.084563) rotate(-45.000000) translate(-77.435116, -83.084563) "></path>
                <path d="M45.3702693,89.1617232 C50.1420323,87.5905018 53.5338385,86.546991 55.545688,86.0311908 C66.788257,83.1488083 76.4912885,82.076307 84.4296164,82.3856572 C94.9530771,82.795748 107.86105,85.7330973 123.153534,91.1977052 L123.153534,91.1977055 C123.328404,91.2601934 123.49733,91.3382062 123.658292,91.4308104 C124.089514,91.6789003 124.3337,91.834693 124.39085,91.8981884 C124.424596,91.9356803 124.535295,92.0989412 124.722948,92.3879709 L124.72296,92.387963 C125.173405,93.0817542 124.976134,94.009341 124.282343,94.4597862 C124.138789,94.5529893 123.980321,94.6208971 123.813823,94.66056 C123.813823,94.66056 123.813823,94.66056 123.813823,94.66056 C123.387708,94.7620683 122.666074,94.5360837 122.475281,94.4497021 C108.903372,88.305027 92.7267475,86.3818028 84.8076151,86.2090903 C79.4522269,86.0922918 72.2851035,85.8428868 63.3854314,87.5090016 C60.1275641,88.1189095 54.3971161,89.6918008 46.1940874,92.2276755 L46.1940927,92.2276927 C45.3948926,92.4747565 44.5467281,92.0271616 44.2996643,91.2279615 C44.2942357,91.2104009 44.2891271,91.1927429 44.2843412,91.1749964 L44.2843412,91.1749964 C44.0543073,90.322014 44.5311207,89.4379916 45.3702568,89.1616853 Z" id="Rectangle-Copy-5" transform="translate(84.595648, 88.510287) rotate(-45.000000) translate(-84.595648, -88.510287) "></path>
                <path d="M63.1680961,94.0621512 C66.7290428,92.8618592 69.2610995,92.0644247 70.7642661,91.6698479 C79.1818402,89.4602594 86.4466965,88.638214 92.3902583,88.8755506 C100.2687,89.1901504 109.93212,91.4420446 121.380517,95.6312333 L121.380517,95.6312333 C121.513408,95.6798608 121.641603,95.7404718 121.763517,95.8123176 C122.084982,96.0017628 122.26706,96.1207696 122.309749,96.169338 C122.335826,96.1990066 122.423281,96.3313986 122.572113,96.566514 L122.572117,96.5665116 C122.909527,97.0995283 122.750957,97.8051486 122.21794,98.1425585 C122.113118,98.2089131 121.998185,98.2577479 121.877659,98.2871441 C121.877659,98.2871441 121.877659,98.2871441 121.877659,98.2871441 C121.558617,98.3649581 121.018322,98.191688 120.875474,98.125458 C110.714072,93.4142528 98.6023844,91.9394381 92.6731917,91.8068574 C88.663519,91.7171984 83.2973706,91.5258361 76.6339913,92.8030023 C74.1977514,93.269955 69.9147716,94.4733298 63.785052,96.4131266 L63.7850497,96.4131194 C63.1822539,96.6038787 62.5389503,96.2698572 62.3481909,95.6670614 C62.3425498,95.6492356 62.3373463,95.6312744 62.332585,95.6131937 L62.332585,95.6131937 C62.1597552,94.9568912 62.5249616,94.2789026 63.1680868,94.0621237 Z" id="Rectangle-Copy-8" transform="translate(92.519590, 93.571486) rotate(-45.000000) translate(-92.519590, -93.571486) "></path>
                <path d="M69.7743679,101.097904 C73.3353146,99.8976121 75.8673713,99.1001777 77.3705379,98.7056009 C85.7881119,96.4960124 93.0529683,95.673967 98.9965301,95.9113036 C106.874972,96.2259034 116.538392,98.4777976 127.986789,102.666986 L127.986789,102.666986 C128.11968,102.715614 128.247875,102.776225 128.369788,102.848071 C128.691254,103.037516 128.873332,103.156523 128.916021,103.205091 C128.942098,103.23476 129.029553,103.367152 129.178385,103.602267 L129.178389,103.602265 C129.515799,104.135281 129.357228,104.840902 128.824212,105.178312 C128.719389,105.244666 128.604457,105.293501 128.483931,105.322897 C128.483931,105.322897 128.483931,105.322897 128.483931,105.322897 C128.164889,105.400711 127.624594,105.227441 127.481745,105.161211 C117.320344,100.450006 105.208656,98.9751911 99.2794635,98.8426104 C95.2697908,98.7529514 89.9036423,98.5615891 83.240263,99.8387552 C80.8040232,100.305708 76.5210434,101.509083 70.3913238,103.44888 L70.3913215,103.448872 C69.7885257,103.639632 69.1452221,103.30561 68.9544627,102.702814 C68.9488216,102.684989 68.9436181,102.667027 68.9388567,102.648947 L68.9388567,102.648947 C68.766027,101.992644 69.1312334,101.314656 69.7743586,101.097877 Z" id="Rectangle-Copy-9" transform="translate(99.125862, 100.607239) rotate(-45.000000) translate(-99.125862, -100.607239) "></path>
                <path d="M74.3161797,108.133657 C77.8771264,106.933365 80.4091831,106.135931 81.9123498,105.741354 C90.3299238,103.531765 97.5947801,102.70972 103.538342,102.947057 C111.416784,103.261656 121.080204,105.513551 132.528601,109.702739 L132.528601,109.702739 C132.661492,109.751367 132.789686,109.811978 132.9116,109.883824 C133.233066,110.073269 133.415144,110.192276 133.457833,110.240844 C133.48391,110.270513 133.571364,110.402905 133.720197,110.63802 L133.720201,110.638018 C134.057611,111.171034 133.89904,111.876655 133.366023,112.214065 C133.261201,112.280419 133.146269,112.329254 133.025743,112.35865 C133.025743,112.35865 133.025743,112.35865 133.025743,112.35865 C132.706701,112.436464 132.166406,112.263194 132.023557,112.196964 C121.862156,107.485759 109.750468,106.010944 103.821275,105.878363 C99.8116026,105.788704 94.4454542,105.597342 87.7820749,106.874508 C85.345835,107.341461 81.0628553,108.544836 74.9331356,110.484633 L74.9331333,110.484625 C74.3303375,110.675385 73.6870339,110.341363 73.4962746,109.738567 C73.4906335,109.720742 73.4854299,109.70278 73.4806686,109.6847 L73.4806686,109.6847 C73.3078388,109.028397 73.6730453,108.350409 74.3161705,108.13363 Z" id="Rectangle-Copy-10" transform="translate(103.667674, 107.642992) rotate(-45.000000) translate(-103.667674, -107.642992) "></path>
                <path d="M83.3998034,113.100071 C86.9607501,111.899779 89.4928068,111.102345 90.9959734,110.707768 C99.4135475,108.498179 106.678404,107.676134 112.621966,107.91347 C120.500408,108.22807 130.163827,110.479964 141.612224,114.669153 L141.612224,114.669153 C141.745116,114.717781 141.87331,114.778392 141.995224,114.850237 C142.31669,115.039683 142.498767,115.158689 142.541456,115.207258 C142.567533,115.236926 142.654988,115.369318 142.803821,115.604434 L142.803825,115.604431 C143.141235,116.137448 142.982664,116.843068 142.449647,117.180478 C142.344825,117.246833 142.229893,117.295668 142.109367,117.325064 C142.109367,117.325064 142.109367,117.325064 142.109367,117.325064 C141.790325,117.402878 141.250029,117.229608 141.107181,117.163378 C130.94578,112.452173 118.834092,110.977358 112.904899,110.844777 C108.895226,110.755118 103.529078,110.563756 96.8656986,111.840922 C94.4294587,112.307875 90.146479,113.51125 84.0167593,115.451046 L84.016757,115.451039 C83.4139612,115.641799 82.7706576,115.307777 82.5798983,114.704981 C82.5742572,114.687155 82.5690536,114.669194 82.5642923,114.651114 L82.5642923,114.651114 C82.3914625,113.994811 82.756669,113.316822 83.3997941,113.100044 Z" id="Rectangle-Copy-12" transform="translate(112.751298, 112.609406) rotate(-45.000000) translate(-112.751298, -112.609406) "></path>
                <path d="M87.9416153,120.135824 C91.502562,118.935532 94.0346187,118.138098 95.5377853,117.743521 C103.955359,115.533932 111.220216,114.711887 117.163777,114.949223 C125.04222,115.263823 134.705639,117.515717 146.154036,121.704906 L146.154036,121.704906 C146.286928,121.753534 146.415122,121.814145 146.537036,121.88599 C146.858502,122.075436 147.040579,122.194442 147.083268,122.243011 C147.109345,122.272679 147.1968,122.405071 147.345633,122.640187 L147.345637,122.640184 C147.683047,123.173201 147.524476,123.878821 146.991459,124.216231 C146.886637,124.282586 146.771705,124.331421 146.651179,124.360817 C146.651179,124.360817 146.651179,124.360817 146.651179,124.360817 C146.332136,124.438631 145.791841,124.265361 145.648993,124.199131 C135.487591,119.487926 123.375904,118.013111 117.446711,117.88053 C113.437038,117.790871 108.07089,117.599509 101.40751,118.876675 C98.9712706,119.343628 94.6882908,120.547003 88.5585712,122.486799 L88.5585689,122.486792 C87.955773,122.677552 87.3124695,122.34353 87.1217101,121.740734 C87.116069,121.722908 87.1108655,121.704947 87.1061041,121.686867 L87.1061041,121.686867 C86.9332744,121.030564 87.2984808,120.352575 87.941606,120.135797 Z" id="Rectangle-Copy-11" transform="translate(117.293109, 119.645159) rotate(-45.000000) translate(-117.293109, -119.645159) "></path>
            </g>
            <ellipse id="Oval" fill="#241769" cx="190.756098" cy="190.793066" rx="4.95470383" ry="4.96641387"></ellipse>
            <g id="player" transform="translate(268.770188, 12.829902)">
                <ellipse id="Oval" fill="#D8D1FA" cx="153.749228" cy="58.7692308" rx="50.3728223" ry="50.4918743"></ellipse>
                <path d="M12.1214503,172.872166 C22.4481466,183.167212 30.5119643,190.259452 36.3129036,194.148885 C46.8687935,201.226433 57.4058595,208.284052 71.6817252,208.131286 C74.5846065,208.100223 84.9150372,207.654179 91.891911,204.25133 C111.606954,194.635661 137.997707,183.601569 147.649273,180.731723 C161.75236,176.53824 177.992684,174.589302 196.370247,174.884909 L195.727427,183.007969 C186.800127,182.873066 180.26172,182.999497 176.112205,183.387263 C163.015707,184.611111 151.937889,187.361084 145.518525,189.580494 C117.878168,199.13678 97.1409091,215.013371 75.6657775,216.299804 C68.7970228,216.711266 61.8795243,215.553065 56.0805019,213.908186 C42.3579612,210.01582 25.774719,198.044221 6.33077517,177.99339 L12.1214503,172.872166 Z" id="Rectangle" stroke="#241769" stroke-width="0.825" fill="#D8D1FA" transform="translate(101.350511, 194.627742) rotate(-64.000000) translate(-101.350511, -194.627742) "></path>
                <path d="M163.438815,9.09029718 L188.283204,9.06491667 C191.017012,9.06212387 193.235466,11.2760492 193.238259,14.0098573 C193.238262,14.0132305 193.238262,14.0166037 193.238259,14.0199769 L193.223454,28.4949821 C193.220662,31.2248391 191.00837,33.437128 188.278513,33.4399168 L163.434124,33.4652973 C160.700316,33.4680901 158.481863,31.2541647 158.47907,28.5203567 C158.479066,28.5169835 158.479066,28.5136103 158.47907,28.5102371 L158.493875,14.0352318 C158.496667,11.3053748 160.708958,9.09308595 163.438815,9.09029718 Z" id="Rectangle-Copy-14" fill="#A396E7" transform="translate(175.858664, 21.265107) rotate(-60.000000) translate(-175.858664, -21.265107) "></path>
                <polygon id="Rectangle-Copy-15" fill="#A396E7" transform="translate(147.817079, 68.181133) rotate(-60.000000) translate(-147.817079, -68.181133) " points="109.975566 63.2621651 185.668733 63.1848386 185.658592 73.1001013 109.965425 73.1774278"></polygon>
                <path d="M124.27259,88.0785453 L140.831024,88.0616296 C142.197928,88.0602332 143.307154,89.1671958 143.308551,90.5340999 C143.308552,90.5357865 143.308552,90.5374731 143.308551,90.5391597 L143.298824,100.04891 C143.297428,101.413838 142.191282,102.519983 140.826354,102.521377 L124.267921,102.538293 C122.901017,102.539689 121.79179,101.432727 121.790394,100.065823 C121.790392,100.064136 121.790392,100.06245 121.790394,100.060763 L121.80012,90.5510127 C121.801516,89.1860842 122.907662,88.0799397 124.27259,88.0785453 Z" id="Rectangle-Copy-16" fill="#A396E7" transform="translate(132.549472, 95.299961) rotate(-60.000000) translate(-132.549472, -95.299961) "></path>
                <path d="M40.1863976,264.409942 L43.4943217,264.407536 C44.4055913,264.406873 45.1448586,265.145066 45.1455214,266.056335 C45.145522,266.057135 45.145522,266.057934 45.1455214,266.058733 L45.1398066,273.930369 C45.1391457,274.840702 44.4013404,275.578509 43.4910072,275.579171 L40.1830831,275.581577 C39.2718135,275.58224 38.5325462,274.844047 38.5318834,273.932777 C38.5318828,273.931978 38.5318828,273.931179 38.5318834,273.930379 L38.5375982,266.058744 C38.5382591,265.14841 39.2760644,264.410604 40.1863976,264.409942 Z" id="Rectangle-Copy-13" fill="#7668BC" transform="translate(41.838702, 269.994556) rotate(-19.000000) translate(-41.838702, -269.994556) "></path>
                <ellipse id="Oval-Copy-2" fill="#A396E7" cx="153.411868" cy="58.9761647" rx="23.7412892" ry="23.7973998"></ellipse>
                <path d="M7.00890864,267.884854 L37.9954473,267.862316 C40.7292561,267.860328 42.947058,270.074906 42.9490464,272.808715 C42.9490482,272.811113 42.9490482,272.813511 42.9490464,272.815909 L42.9427161,281.535298 C42.9407334,284.266298 40.7273176,286.479717 37.9963178,286.481703 L7.00977915,286.504241 C4.27597036,286.50623 2.05816851,284.291652 2.05618007,281.557843 C2.05617833,281.555445 2.05617833,281.553047 2.05618007,281.550649 L2.06251033,272.831259 C2.06449303,270.10026 4.27790889,267.886841 7.00890864,267.884854 Z" id="Rectangle" fill="#A396E7" transform="translate(22.502613, 277.183279) rotate(-19.000000) translate(-22.502613, -277.183279) "></path>
                <ellipse id="Oval-Copy-3" fill="#7668BC" cx="153.542782" cy="58.9761647" rx="13.4189895" ry="13.4507042"></ellipse>
                <path d="M11.6922419,281.072089 L17.8926192,281.067579 C19.1456149,281.066668 20.1621074,282.081682 20.1630187,283.334678 C20.1630195,283.335777 20.1630195,283.336876 20.1630187,283.337975 L20.1630087,283.35188 C20.1620999,284.603588 19.1476176,285.618072 17.8959094,285.618982 L11.6955321,285.623492 C10.4425364,285.624404 9.4260439,284.609389 9.42513253,283.356393 C9.42513173,283.355294 9.42513173,283.354195 9.42513253,283.353096 L9.42514263,283.339191 C9.42605137,282.087483 10.4405336,281.072999 11.6922419,281.072089 Z" id="Rectangle-Copy-101" fill="#7668BC" transform="translate(14.794076, 283.345536) rotate(-19.000000) translate(-14.794076, -283.345536) "></path>
                <path d="M9.47234299,273.955487 L15.6727203,273.950977 C16.925716,273.950066 17.9422085,274.965081 17.9431199,276.218076 C17.9431207,276.219176 17.9431207,276.220275 17.9431199,276.221374 L17.9431098,276.235278 C17.942201,277.486987 16.9277188,278.50147 15.6760106,278.502381 L9.47563324,278.506891 C8.22263755,278.507802 7.20614504,277.492787 7.20523367,276.239791 C7.20523287,276.238692 7.20523287,276.237593 7.20523367,276.236494 L7.20524376,276.222589 C7.2061525,274.970881 8.22063477,273.956398 9.47234299,273.955487 Z" id="Rectangle-Copy-102" fill="#7668BC" transform="translate(12.574177, 276.228934) rotate(-19.000000) translate(-12.574177, -276.228934) "></path>
            </g>
        </g>
    </g>
</svg>